<?xml version="1.0" encoding="UTF-8" standalone="no"?>
<!DOCTYPE svg PUBLIC "-//W3C//DTD SVG 1.1//EN" "http://www.w3.org/Graphics/SVG/1.1/DTD/svg11.dtd">
<svg width="100%" height="100%" viewBox="0 0 50 50" version="1.1" xmlns="http://www.w3.org/2000/svg" xmlns:xlink="http://www.w3.org/1999/xlink" xml:space="preserve" style="fill-rule:evenodd;clip-rule:evenodd;stroke-linejoin:round;stroke-miterlimit:1.41421;">
    <g transform="matrix(0.434282,0,0,0.442787,-227.557,-223.819)">
        <path d="M629.58,535.481L629.58,523.122L532.562,523.122L532.562,535.481L629.58,535.481ZM629.58,593.566L629.58,538.842L532.562,538.842L532.562,593.566L629.58,593.566ZM632.941,521.441L632.941,595.247C632.941,596.177 632.188,596.927 631.261,596.927L530.881,596.927C529.951,596.927 529.201,596.177 529.201,595.247L529.201,521.441C529.201,520.513 529.951,519.761 530.881,519.761L631.261,519.761C632.188,519.761 632.941,520.513 632.941,521.441Z" style="fill-rule:nonzero;"/>
    </g>
    <g transform="matrix(0.434282,0,0,0.442787,-227.557,-223.819)">
        <path d="M538.13,529.301C538.13,528.86 537.95,528.425 537.639,528.111C537.325,527.8 536.893,527.621 536.449,527.621C536.008,527.621 535.573,527.8 535.262,528.111C534.948,528.425 534.769,528.858 534.769,529.301C534.769,529.743 534.948,530.177 535.262,530.489C535.575,530.802 536.008,530.982 536.449,530.982C536.893,530.982 537.325,530.802 537.639,530.489C537.95,530.175 538.13,529.743 538.13,529.301ZM543.561,529.301C543.561,528.858 543.382,528.425 543.068,528.111C542.757,527.8 542.322,527.621 541.88,527.621C541.439,527.621 541.007,527.8 540.693,528.111C540.379,528.425 540.2,528.858 540.2,529.301C540.2,529.743 540.379,530.177 540.693,530.489C541.007,530.802 541.439,530.982 541.88,530.982C542.322,530.982 542.757,530.802 543.068,530.489C543.382,530.175 543.561,529.743 543.561,529.301ZM548.992,529.301C548.992,528.858 548.813,528.425 548.499,528.111C548.188,527.8 547.755,527.621 547.312,527.621C546.87,527.621 546.436,527.8 546.122,528.111C545.81,528.425 545.631,528.858 545.631,529.301C545.631,529.743 545.81,530.175 546.122,530.489C546.436,530.802 546.87,530.982 547.312,530.982C547.755,530.982 548.188,530.802 548.499,530.489C548.813,530.175 548.992,529.743 548.992,529.301ZM626.139,532.438L626.139,526.164C626.139,525.237 625.386,524.484 624.458,524.484L552.987,524.484C552.06,524.484 551.307,525.237 551.307,526.164L551.307,532.438C551.307,533.366 552.06,534.118 552.987,534.118L624.458,534.118C625.386,534.118 626.139,533.366 626.139,532.438ZM629.58,523.122L629.58,535.481L532.562,535.481L532.562,523.122L629.58,523.122Z" style="fill:rgb(59,196,222);fill-rule:nonzero;"/>
    </g>
    <g transform="matrix(0.434282,0,0,0.442787,-227.557,-223.819)">
        <path d="M622.778,530.758L622.778,527.845L554.668,527.845L554.668,530.758L622.778,530.758ZM626.139,526.164L626.139,532.438C626.139,533.366 625.386,534.118 624.458,534.118L552.987,534.118C552.06,534.118 551.307,533.366 551.307,532.438L551.307,526.164C551.307,525.237 552.06,524.484 552.987,524.484L624.458,524.484C625.386,524.484 626.139,525.237 626.139,526.164Z" style="fill-rule:nonzero;"/>
    </g>
    <g transform="matrix(0.434282,0,0,0.442787,-227.557,-223.819)">
        <path d="M617.949,584.505L617.949,571.882L601.593,571.882L601.593,584.505L617.949,584.505ZM621.31,570.201L621.31,586.186C621.31,587.114 620.557,587.866 619.63,587.866L599.912,587.866C598.985,587.866 598.232,587.114 598.232,586.186L598.232,570.201C598.232,569.271 598.985,568.521 599.912,568.521L619.63,568.521C620.557,568.521 621.31,569.271 621.31,570.201Z" style="fill-rule:nonzero;"/>
    </g>
    <g transform="matrix(0.434282,0,0,0.442787,-227.557,-223.819)">
        <path d="M619.63,544.542C620.557,544.542 621.31,545.295 621.31,546.222C621.31,547.152 620.557,547.903 619.63,547.903L599.912,547.903C598.985,547.903 598.232,547.152 598.232,546.222C598.232,545.295 598.985,544.542 599.912,544.542L619.63,544.542Z" style="fill-rule:nonzero;"/>
    </g>
    <g transform="matrix(0.434282,0,0,0.442787,-227.557,-223.819)">
        <path d="M619.63,552.534C620.557,552.534 621.31,553.287 621.31,554.215C621.31,555.144 620.557,555.895 619.63,555.895L599.912,555.895C598.985,555.895 598.232,555.144 598.232,554.215C598.232,553.287 598.985,552.534 599.912,552.534L619.63,552.534Z" style="fill-rule:nonzero;"/>
    </g>
    <g transform="matrix(0.434282,0,0,0.442787,-227.557,-223.819)">
        <path d="M619.63,560.529C620.557,560.529 621.31,561.279 621.31,562.209C621.31,563.137 620.557,563.89 619.63,563.89L599.912,563.89C598.985,563.89 598.232,563.137 598.232,562.209C598.232,561.279 598.985,560.529 599.912,560.529L619.63,560.529Z" style="fill-rule:nonzero;"/>
    </g>
    <g transform="matrix(0.434282,0,0,0.442787,-227.557,-223.819)">
        <rect x="601.593" y="571.882" width="16.356" height="12.623" style="fill:rgb(232,135,108);fill-rule:nonzero;"/>
    </g>
    <g transform="matrix(0.434282,0,0,0.442787,-227.557,-223.819)">
        <path d="M589.247,560.529L589.247,547.903L572.893,547.903L572.893,560.529L589.247,560.529ZM592.608,546.222L592.608,562.209C592.608,563.137 591.857,563.89 590.927,563.89L571.212,563.89C570.285,563.89 569.532,563.137 569.532,562.209L569.532,546.222C569.532,545.295 570.285,544.542 571.212,544.542L590.927,544.542C591.857,544.542 592.608,545.295 592.608,546.222Z" style="fill-rule:nonzero;"/>
    </g>
    <g transform="matrix(0.434282,0,0,0.442787,-227.557,-223.819)">
        <path d="M590.927,568.521C591.857,568.521 592.608,569.271 592.608,570.201C592.608,571.129 591.857,571.882 590.927,571.882L571.212,571.882C570.285,571.882 569.532,571.129 569.532,570.201C569.532,569.271 570.285,568.521 571.212,568.521L590.927,568.521Z" style="fill-rule:nonzero;"/>
    </g>
    <g transform="matrix(0.434282,0,0,0.442787,-227.557,-223.819)">
        <path d="M590.927,576.513C591.857,576.513 592.608,577.266 592.608,578.194C592.608,579.121 591.857,579.874 590.927,579.874L571.212,579.874C570.285,579.874 569.532,579.121 569.532,578.194C569.532,577.266 570.285,576.513 571.212,576.513L590.927,576.513Z" style="fill-rule:nonzero;"/>
    </g>
    <g transform="matrix(0.434282,0,0,0.442787,-227.557,-223.819)">
        <path d="M590.927,584.505C591.857,584.505 592.608,585.258 592.608,586.186C592.608,587.114 591.857,587.866 590.927,587.866L571.212,587.866C570.285,587.866 569.532,587.114 569.532,586.186C569.532,585.258 570.285,584.505 571.212,584.505L590.927,584.505Z" style="fill-rule:nonzero;"/>
    </g>
    <g transform="matrix(0.434282,0,0,0.442787,-227.557,-223.819)">
        <rect x="572.893" y="547.903" width="16.354" height="12.626" style="fill:rgb(232,135,108);fill-rule:nonzero;"/>
    </g>
    <g transform="matrix(0.434282,0,0,0.442787,-227.557,-223.819)">
        <path d="M562.227,544.542C563.157,544.542 563.908,545.295 563.908,546.222C563.908,547.152 563.157,547.903 562.227,547.903L542.512,547.903C541.585,547.903 540.832,547.152 540.832,546.222C540.832,545.295 541.585,544.542 542.512,544.542L562.227,544.542Z" style="fill-rule:nonzero;"/>
    </g>
    <g transform="matrix(0.434282,0,0,0.442787,-227.557,-223.819)">
        <path d="M562.227,552.534C563.157,552.534 563.908,553.287 563.908,554.215C563.908,555.144 563.157,555.895 562.227,555.895L542.512,555.895C541.585,555.895 540.832,555.144 540.832,554.215C540.832,553.287 541.585,552.534 542.512,552.534L562.227,552.534Z" style="fill-rule:nonzero;"/>
    </g>
    <g transform="matrix(0.434282,0,0,0.442787,-227.557,-223.819)">
        <path d="M562.227,560.529C563.157,560.529 563.908,561.279 563.908,562.209C563.908,563.137 563.157,563.89 562.227,563.89L542.512,563.89C541.585,563.89 540.832,563.137 540.832,562.209C540.832,561.279 541.585,560.529 542.512,560.529L562.227,560.529Z" style="fill-rule:nonzero;"/>
    </g>
    <g transform="matrix(0.434282,0,0,0.442787,-227.557,-223.819)">
        <path d="M562.227,568.521C563.157,568.521 563.908,569.271 563.908,570.201C563.908,571.129 563.157,571.882 562.227,571.882L542.512,571.882C541.585,571.882 540.832,571.129 540.832,570.201C540.832,569.271 541.585,568.521 542.512,568.521L562.227,568.521Z" style="fill-rule:nonzero;"/>
    </g>
    <g transform="matrix(0.434282,0,0,0.442787,-227.557,-223.819)">
        <path d="M562.227,576.513C563.157,576.513 563.908,577.266 563.908,578.194C563.908,579.121 563.157,579.874 562.227,579.874L542.512,579.874C541.585,579.874 540.832,579.121 540.832,578.194C540.832,577.266 541.585,576.513 542.512,576.513L562.227,576.513Z" style="fill-rule:nonzero;"/>
    </g>
    <g transform="matrix(0.434282,0,0,0.442787,-227.557,-223.819)">
        <path d="M562.227,584.505C563.157,584.505 563.908,585.258 563.908,586.186C563.908,587.114 563.157,587.866 562.227,587.866L542.512,587.866C541.585,587.866 540.832,587.114 540.832,586.186C540.832,585.258 541.585,584.505 542.512,584.505L562.227,584.505Z" style="fill-rule:nonzero;"/>
    </g>
    <g transform="matrix(0.434282,0,0,0.442787,-227.557,-223.819)">
        <path d="M548.499,528.111C548.813,528.425 548.992,528.858 548.992,529.301C548.992,529.743 548.813,530.175 548.499,530.489C548.188,530.802 547.755,530.982 547.312,530.982C546.87,530.982 546.436,530.802 546.122,530.489C545.81,530.175 545.631,529.743 545.631,529.301C545.631,528.858 545.81,528.425 546.122,528.111C546.436,527.8 546.87,527.621 547.312,527.621C547.755,527.621 548.188,527.8 548.499,528.111Z" style="fill-rule:nonzero;"/>
    </g>
    <g transform="matrix(0.434282,0,0,0.442787,-227.557,-223.819)">
        <path d="M543.068,528.111C543.382,528.425 543.561,528.858 543.561,529.301C543.561,529.743 543.382,530.175 543.068,530.489C542.757,530.802 542.322,530.982 541.88,530.982C541.439,530.982 541.007,530.802 540.693,530.489C540.379,530.177 540.2,529.743 540.2,529.301C540.2,528.858 540.379,528.425 540.693,528.111C541.007,527.8 541.439,527.621 541.88,527.621C542.322,527.621 542.757,527.8 543.068,528.111Z" style="fill-rule:nonzero;"/>
    </g>
    <g transform="matrix(0.434282,0,0,0.442787,-227.557,-223.819)">
        <path d="M537.639,528.111C537.95,528.425 538.13,528.86 538.13,529.301C538.13,529.743 537.95,530.175 537.639,530.489C537.325,530.802 536.893,530.982 536.449,530.982C536.008,530.982 535.575,530.802 535.262,530.489C534.948,530.177 534.769,529.743 534.769,529.301C534.769,528.858 534.948,528.425 535.262,528.111C535.573,527.8 536.008,527.621 536.449,527.621C536.893,527.621 537.325,527.8 537.639,528.111Z" style="fill-rule:nonzero;"/>
    </g>
</svg>
