<?xml version="1.0" encoding="UTF-8" standalone="no"?><!DOCTYPE svg PUBLIC "-//W3C//DTD SVG 1.1//EN" "http://www.w3.org/Graphics/SVG/1.1/DTD/svg11.dtd"><svg width="100%" height="100%" viewBox="0 0 30 30" version="1.1" xmlns="http://www.w3.org/2000/svg" xmlns:xlink="http://www.w3.org/1999/xlink" xml:space="preserve" style="fill-rule:evenodd;clip-rule:evenodd;stroke-linejoin:round;stroke-miterlimit:1.41421;"><path d="M27.713,21.291c-0.179,-0.127 -0.335,-1.106 -0.411,-1.363c-0.855,-2.875 -1.675,-5.797 -2.732,-8.558c-0.275,-0.719 -0.598,-1.811 -1.134,-2.281c-0.802,-0.706 -1.775,-0.097 -2.551,0.557c0.016,-0.88 -0.088,-1.817 -0.134,-2.649c1.291,-1.217 3.098,-1.953 4.341,-0.187c0.748,1.062 1.092,2.595 1.446,3.939c0.356,1.35 0.642,2.731 0.925,4.111c0.322,1.57 0.846,3.335 0.919,4.965c0.021,0.471 -0.065,1.892 -0.669,1.466Zm-12.495,-10.861c-1.817,0.052 -3.635,-0.016 -5.452,0c-1.564,0.014 -3.128,0.042 -4.692,0.049c-0.001,0 -0.001,0 -0.001,0c-0.005,-0.38 -0.009,-0.759 -0.008,-1.139c0,-0.523 -0.127,-1.534 -0.043,-2.187c0.061,-0.025 0.151,-0.046 0.283,-0.01c0.214,0.059 0.497,-0.011 0.712,-0.013c0.773,-0.009 1.545,-0.002 2.317,0.007c1.411,0.017 2.823,0.032 4.232,0.109c1.994,0.083 3.992,-0.12 5.987,-0.095c0.263,0.003 1.18,-0.179 1.416,0.05c0.159,0.155 0.153,0.727 0.171,1.263c0.014,0.44 0.061,0.94 0.033,1.381c-0.009,0.14 0.004,0.217 0.022,0.268c-0.039,0.003 -0.089,0.015 -0.162,0.047c-1.357,0.576 -3.407,0.23 -4.815,0.27Zm6.127,8.554c0.516,2.084 2.472,7.695 0.56,9.105c-0.92,0.678 -2.268,0.475 -3.27,0.468c-1.449,-0.01 -2.896,-0.075 -4.344,-0.101c-3.131,-0.054 -6.278,0.435 -9.401,-0.047c-1.621,-0.25 -2.962,-1.242 -2.649,-3.82c0.169,-1.394 0.562,-2.753 0.892,-4.09c0.752,-3.053 1.568,-6.065 2.642,-8.949c0.012,-0.033 0.013,-0.064 0.019,-0.097c0.57,-0.015 1.159,-0.107 1.654,-0.114c1.708,-0.025 3.417,-0.053 5.125,-0.025c1.603,0.028 3.203,-0.01 4.805,-0.094c0.567,-0.03 1.193,-0.003 1.807,-0.033c0.752,2.583 1.508,5.166 2.16,7.797Zm-15.088,-15.259c0.54,0.002 1.079,0.006 1.618,0.009c1.746,0.01 3.493,0.019 5.239,0.013c1.547,-0.006 3.094,-0.04 4.641,-0.033c0.452,0.003 1.526,-0.259 1.918,0.016c0.65,0.455 -0.213,1.905 -0.443,2.569c-2.222,-0.059 -4.442,0.159 -6.664,0.068c-1.53,-0.084 -3.064,-0.098 -4.594,-0.113c-0.544,-0.005 -1.218,-0.102 -1.872,-0.12c-0.253,-0.57 -0.798,-0.871 -0.997,-1.375c-0.578,-1.465 0.606,-1.038 1.154,-1.034Zm22.359,13.495c-0.369,-1.974 -0.754,-3.959 -1.227,-5.895c-0.455,-1.862 -0.963,-4.28 -2.167,-5.565c-1.543,-1.646 -3.498,-0.824 -4.924,0.59c-0.113,-0.008 -0.224,-0.012 -0.336,-0.018c0.518,-1.253 1.492,-3.055 -0.096,-3.479c-0.791,-0.211 -1.783,-0.019 -2.584,-0.019c-1.24,0 -2.48,0.025 -3.72,0.031c-2.832,0.015 -5.664,-0.032 -8.496,-0.026c-0.515,0.001 -1.466,-0.106 -1.514,0.897c-0.046,0.972 1.114,1.698 1.717,2.442c-0.209,0.031 -0.412,0.076 -0.594,0.152c-0.143,0.061 -0.241,0.224 -0.245,0.425c-0.025,1.36 -0.123,2.786 0,4.14c0.018,0.195 0.092,0.369 0.245,0.424c0.131,0.047 0.271,0.075 0.414,0.097c-1.173,3.21 -2.054,6.571 -2.871,9.965c-0.473,1.967 -1.526,5.589 0.18,7.098c1.388,1.229 3.813,0.986 5.395,1.009c2.054,0.03 4.106,-0.18 6.161,-0.158c1.914,0.021 3.828,0.15 5.742,0.102c0.979,-0.024 2.375,-0.061 3.149,-0.989c1.286,-1.543 0.19,-5.013 -0.168,-6.705c-0.765,-3.613 -1.783,-7.118 -2.802,-10.616c0.206,-0.032 0.407,-0.076 0.601,-0.137c0.038,-0.001 0.078,-0.015 0.119,-0.041c0.017,-0.009 0.035,-0.016 0.051,-0.029c0.968,-0.883 2.131,-1.808 2.865,-0.281c0.341,0.709 0.606,1.491 0.873,2.251c0.686,1.948 1.286,3.949 1.881,5.946c0.206,0.69 0.471,2.537 0.928,3.055c0.514,0.58 1.684,-0.132 1.906,-0.918c0.282,-0.992 -0.31,-2.82 -0.483,-3.748Z" style="fill:#333;fill-rule:nonzero;"/><path d="M14.254,16.863c-1.148,0.436 -2.259,1.082 -3.44,1.359c-1.951,0.459 -3.578,-0.502 -5.282,-1.669c-0.154,-0.105 -0.296,-0.042 -0.392,0.085c-0.019,0.022 -0.034,0.051 -0.049,0.079c-0.006,0.012 -0.012,0.022 -0.017,0.034c-0.01,0.022 -0.024,0.038 -0.032,0.064c-0.8,2.673 -3.332,9.105 0.137,10.099c2.217,0.635 4.747,0.008 6.988,-0.056c2.461,-0.069 5.264,0.604 7.681,-0.097c1.242,-0.36 1.7,-1.32 1.534,-2.979c-0.189,-1.868 -0.795,-5.071 -1.962,-6.339c-1.438,-1.563 -3.514,-1.207 -5.166,-0.58Z" style="fill:#e8876c;fill-rule:nonzero;"/><rect x="5.958" y="3.846" width="13.364" height="1.746" style="fill:#3bc4de;"/></svg>