<?xml version="1.0" encoding="UTF-8" standalone="no"?>
<!DOCTYPE svg PUBLIC "-//W3C//DTD SVG 1.1//EN" "http://www.w3.org/Graphics/SVG/1.1/DTD/svg11.dtd">
<svg width="100%" height="100%" viewBox="0 0 50 50" version="1.1" xmlns="http://www.w3.org/2000/svg" xmlns:xlink="http://www.w3.org/1999/xlink" xml:space="preserve" style="fill-rule:evenodd;clip-rule:evenodd;stroke-linejoin:round;stroke-miterlimit:1.41421;">
    <g transform="matrix(0.456613,0,0,0.420159,-77.3499,-61.2375)">
        <path d="M270.184,174.278L270.184,179.474L265.754,179.474L265.754,177.556C265.754,176.628 265.001,175.876 264.073,175.876L248.918,175.876C247.99,175.876 247.237,176.628 247.237,177.556L247.237,179.474L232.098,179.474C229.395,178.524 226.492,178.006 223.467,178.006C220.444,178.006 217.54,178.524 214.838,179.474L176.75,179.474L176.75,174.278L270.184,174.278Z" style="fill:rgb(59,196,222);fill-rule:nonzero;"/>
    </g>
    <g transform="matrix(0.456613,0,0,0.420159,-77.3499,-61.2375)">
        <path d="M270.184,228.788L270.184,233.981L176.75,233.981L176.75,228.788L214.84,228.788C217.543,229.736 220.446,230.253 223.467,230.253C226.489,230.253 229.393,229.736 232.095,228.788L270.184,228.788Z" style="fill:rgb(59,196,222);fill-rule:nonzero;"/>
    </g>
    <g transform="matrix(0.456613,0,0,0.420159,-77.3499,-61.2375)">
        <path d="M199.331,170.917L199.331,167.502L184.115,167.502L184.115,170.917L199.331,170.917ZM208.354,182.835L176.75,182.835L176.75,225.427L208.354,225.427C201.695,220.688 197.343,212.906 197.343,204.13C197.343,195.353 201.695,187.574 208.354,182.835ZM246.231,204.13C246.231,191.578 236.019,181.367 223.467,181.367C210.917,181.367 200.704,191.578 200.704,204.13C200.704,216.682 210.917,226.892 223.467,226.892C236.019,226.892 246.231,216.682 246.231,204.13ZM262.393,188.096L262.393,179.237L250.598,179.237L250.598,188.096L262.393,188.096ZM270.184,179.474L270.184,174.278L176.75,174.278L176.75,179.474L214.838,179.474C217.54,178.524 220.444,178.006 223.467,178.006C226.492,178.006 229.395,178.524 232.098,179.474L247.237,179.474L247.237,177.556C247.237,176.628 247.99,175.876 248.918,175.876L264.073,175.876C265.001,175.876 265.754,176.628 265.754,177.556L265.754,179.474L270.184,179.474ZM270.184,225.427L270.184,182.835L265.754,182.835L265.754,189.776C265.754,190.706 265.001,191.457 264.073,191.457L248.918,191.457C247.99,191.457 247.237,190.706 247.237,189.776L247.237,182.835L238.582,182.835C245.241,187.574 249.592,195.353 249.592,204.13C249.592,212.906 245.241,220.688 238.582,225.427L270.184,225.427ZM270.184,233.981L270.184,228.788L232.095,228.788C229.393,229.736 226.489,230.253 223.467,230.253C220.446,230.253 217.543,229.736 214.84,228.788L176.75,228.788L176.75,233.981L270.184,233.981ZM273.544,172.598L273.544,235.662C273.544,236.59 272.794,237.342 271.864,237.342L175.069,237.342C174.142,237.342 173.389,236.59 173.389,235.662L173.389,172.598C173.389,171.67 174.142,170.917 175.069,170.917L180.754,170.917L180.754,165.822C180.754,164.894 181.507,164.142 182.434,164.142L201.011,164.142C201.939,164.142 202.692,164.894 202.692,165.822L202.692,170.917L271.864,170.917C272.794,170.917 273.544,171.67 273.544,172.598Z" style="fill-rule:nonzero;"/>
    </g>
    <g transform="matrix(0.456613,0,0,0.420159,-77.3499,-61.2375)">
        <path d="M270.184,182.835L270.184,225.427L238.582,225.427C245.241,220.688 249.592,212.906 249.592,204.13C249.592,195.353 245.241,187.574 238.582,182.835L247.237,182.835L247.237,189.776C247.237,190.706 247.99,191.457 248.918,191.457L264.073,191.457C265.001,191.457 265.754,190.706 265.754,189.776L265.754,182.835L270.184,182.835Z" style="fill:white;fill-rule:nonzero;"/>
    </g>
    <g transform="matrix(0.456613,0,0,0.420159,-77.3499,-61.2375)">
        <path d="M241.661,204.13C241.661,194.099 233.5,185.936 223.467,185.936C213.436,185.936 205.275,194.099 205.275,204.13C205.275,214.161 213.436,222.324 223.467,222.324C233.5,222.324 241.661,214.161 241.661,204.13ZM223.467,181.367C236.019,181.367 246.231,191.578 246.231,204.13C246.231,216.682 236.019,226.892 223.467,226.892C210.917,226.892 200.704,216.682 200.704,204.13C200.704,191.578 210.917,181.367 223.467,181.367Z" style="fill:rgb(232,135,108);fill-rule:nonzero;"/>
    </g>
    <g transform="matrix(0.456613,0,0,0.420159,-77.3499,-61.2375)">
        <path d="M238.3,204.13C238.3,195.952 231.647,189.297 223.467,189.297C215.288,189.297 208.636,195.952 208.636,204.13C208.636,212.308 215.288,218.963 223.467,218.963C231.647,218.963 238.3,212.308 238.3,204.13ZM223.467,185.936C233.5,185.936 241.661,194.099 241.661,204.13C241.661,214.161 233.5,222.324 223.467,222.324C213.436,222.324 205.275,214.161 205.275,204.13C205.275,194.099 213.436,185.936 223.467,185.936Z" style="fill-rule:nonzero;"/>
    </g>
    <g transform="matrix(0.456613,0,0,0.420159,-77.3499,-61.2375)">
        <path d="M235.49,204.13C235.49,205.057 234.737,205.81 233.809,205.81C232.882,205.81 232.129,205.057 232.129,204.13C232.129,199.355 228.244,195.47 223.467,195.47C222.539,195.47 221.786,194.717 221.786,193.789C221.786,192.859 222.539,192.109 223.467,192.109C230.097,192.109 235.49,197.502 235.49,204.13Z" style="fill-rule:nonzero;"/>
    </g>
    <g transform="matrix(0.456613,0,0,0.420159,-77.3499,-61.2375)">
        <path d="M225.147,214.47C225.147,213.543 224.397,212.79 223.467,212.79C218.692,212.79 214.807,208.905 214.807,204.13C214.807,203.202 214.054,202.449 213.126,202.449C212.199,202.449 211.446,203.202 211.446,204.13C211.446,210.758 216.839,216.151 223.467,216.151C224.397,216.151 225.147,215.4 225.147,214.47ZM233.809,205.81C234.737,205.81 235.49,205.057 235.49,204.13C235.49,197.502 230.097,192.109 223.467,192.109C222.539,192.109 221.786,192.859 221.786,193.789C221.786,194.717 222.539,195.47 223.467,195.47C228.244,195.47 232.129,199.355 232.129,204.13C232.129,205.057 232.882,205.81 233.809,205.81ZM223.467,189.297C231.647,189.297 238.3,195.952 238.3,204.13C238.3,212.308 231.647,218.963 223.467,218.963C215.288,218.963 208.636,212.308 208.636,204.13C208.636,195.952 215.288,189.297 223.467,189.297Z" style="fill:white;fill-rule:nonzero;"/>
    </g>
    <g transform="matrix(0.456613,0,0,0.420159,-77.3499,-61.2375)">
        <path d="M223.467,212.79C224.397,212.79 225.147,213.543 225.147,214.47C225.147,215.4 224.397,216.151 223.467,216.151C216.839,216.151 211.446,210.758 211.446,204.13C211.446,203.202 212.199,202.449 213.126,202.449C214.054,202.449 214.807,203.202 214.807,204.13C214.807,208.905 218.692,212.79 223.467,212.79Z" style="fill-rule:nonzero;"/>
    </g>
    <g transform="matrix(0.456613,0,0,0.420159,-77.3499,-61.2375)">
        <path d="M194.256,194.665C194.256,191.582 191.749,189.075 188.666,189.075C185.582,189.075 183.073,191.582 183.073,194.665C183.073,197.749 185.582,200.258 188.666,200.258C191.749,200.258 194.256,197.749 194.256,194.665ZM176.75,182.835L208.354,182.835C201.695,187.574 197.343,195.353 197.343,204.13C197.343,212.906 201.695,220.688 208.354,225.427L176.75,225.427L176.75,182.835Z" style="fill:white;fill-rule:nonzero;"/>
    </g>
    <g transform="matrix(0.456613,0,0,0.420159,-77.3499,-61.2375)">
        <rect x="184.115" y="167.502" width="15.216" height="3.415" style="fill:rgb(232,135,108);fill-rule:nonzero;"/>
    </g>
    <g transform="matrix(0.456613,0,0,0.420159,-77.3499,-61.2375)">
        <path d="M190.895,194.665C190.895,193.435 189.896,192.436 188.666,192.436C187.435,192.436 186.434,193.435 186.434,194.665C186.434,195.896 187.435,196.897 188.666,196.897C189.896,196.897 190.895,195.896 190.895,194.665ZM188.666,189.075C191.749,189.075 194.256,191.582 194.256,194.665C194.256,197.749 191.749,200.258 188.666,200.258C185.582,200.258 183.073,197.749 183.073,194.665C183.073,191.582 185.582,189.075 188.666,189.075Z" style="fill-rule:nonzero;"/>
    </g>
</svg>
