<?xml version="1.0" encoding="UTF-8" standalone="no"?>
<!DOCTYPE svg PUBLIC "-//W3C//DTD SVG 1.1//EN" "http://www.w3.org/Graphics/SVG/1.1/DTD/svg11.dtd">
<svg width="100%" height="100%" viewBox="0 0 50 50" version="1.1" xmlns="http://www.w3.org/2000/svg" xmlns:xlink="http://www.w3.org/1999/xlink" xml:space="preserve" style="fill-rule:evenodd;clip-rule:evenodd;stroke-linecap:round;stroke-linejoin:round;stroke-miterlimit:1.5;">
    <g transform="matrix(0.107866,0,0,0.160496,-44.0483,-49.9153)">
        <rect x="451.707" y="341.951" width="379.512" height="240.976" style="fill:none;stroke:black;stroke-width:6.4px;"/>
    </g>
    <g transform="matrix(0.707304,0,0,1.1899,-29.5268,-403.61)">
        <path d="M99.833,363.461L78.368,370.547L56.338,362.897L77.803,355.811L99.833,363.461Z" style="fill:rgb(246,254,255);fill-rule:nonzero;stroke:black;stroke-width:0.76px;stroke-miterlimit:10;"/>
    </g>
    <g transform="matrix(0.707304,0,0,1.1899,-29.4542,-408.356)">
        <path d="M99.833,363.461L78.368,370.547L56.338,362.897L77.803,355.811L99.833,363.461Z" style="fill:rgb(232,135,108);fill-rule:nonzero;stroke:black;stroke-width:0.74px;stroke-miterlimit:10;"/>
    </g>
    <g transform="matrix(0.707304,0,0,1.1899,-29.627,-413.878)">
        <path d="M99.833,363.461L78.368,370.547L56.338,362.897L77.803,355.811L99.833,363.461Z" style="fill:rgb(59,196,222);fill-rule:nonzero;stroke:black;stroke-width:0.74px;stroke-miterlimit:10;"/>
    </g>
</svg>
