<?xml version="1.0" encoding="UTF-8" standalone="no"?><!DOCTYPE svg PUBLIC "-//W3C//DTD SVG 1.1//EN" "http://www.w3.org/Graphics/SVG/1.1/DTD/svg11.dtd"><svg width="100%" height="100%" viewBox="0 0 50 50" version="1.1" xmlns="http://www.w3.org/2000/svg" xmlns:xlink="http://www.w3.org/1999/xlink" xml:space="preserve" style="fill-rule:evenodd;clip-rule:evenodd;stroke-linejoin:round;stroke-miterlimit:1.41421;"><path id="background_1_" d="M49.14,34.946l0,-21.334c-0.13,-1.136 -0.926,-2.041 -1.939,-2.217l-44.386,0c-1.11,0.193 -1.958,1.26 -1.958,2.547l0,20.674c0,1.425 1.039,2.579 2.32,2.579l43.662,0c1.181,0 2.156,-0.98 2.301,-2.249l0,0Z" style="fill:#fff;stroke:#000;stroke-width:0.77px;"/><path id="highlight_1_" d="M2.926,11.404l44.145,0l0,9.026l-44.145,0l0,-9.026Z" style="fill:url(#_Radial1);"/><path id="rect28" d="M7.524,16.488l3.65,0l0,15.639l-3.65,0l0,-15.639Z"/><path id="path32" d="M11.174,16.488l0,15.639l-3.65,0l0,-15.639l3.65,0m0.322,-0.358l-0.322,0l-3.65,0l-0.322,0l0,16.355l4.294,0l0,-0.358l0,-15.639l0,-0.358Z" style="fill:#fbfbed;fill-opacity:0.3;fill-rule:nonzero;"/><path id="path36" d="M18.957,16.488l-0.846,7.306l-0.522,-3.973c-0.153,-1.275 -0.299,-2.386 -0.438,-3.333l-4.731,0l0,15.639l3.196,0l0.012,-10.326l1.345,10.326l2.277,0l1.276,-10.556l0.012,10.556l3.186,0l0,-15.639l-4.767,0l0,0Z"/><path id="path40" d="M23.724,16.488l0,15.639l-3.186,0l-0.012,-10.556l-1.276,10.556l-2.277,0l-1.345,-10.326l-0.012,10.326l-3.196,0l0,-15.639l4.731,0c0.139,0.947 0.285,2.058 0.438,3.333l0.522,3.973l0.846,-7.306l4.767,0m0.322,-0.358l-0.322,0l-4.767,0l-0.284,0l-0.036,0.312l-0.546,4.724l-0.184,-1.394c-0.152,-1.273 -0.299,-2.397 -0.438,-3.342l-0.044,-0.3l-0.274,0l-4.731,0l-0.322,0l0,16.355l3.84,0l0,-0.358l0.006,-5.401l0.71,5.452l0.04,0.307l2.837,0l0.038,-0.31l0.641,-5.303l0.006,5.255l0,0.358l3.83,0l0,-0.358l0,-15.639l0,-0.358l0,0Z" style="fill:#fbfbed;fill-opacity:0.3;fill-rule:nonzero;"/><path id="path44" d="M29.431,19.303c0.144,0.092 0.236,0.239 0.277,0.438c0.04,0.199 0.06,0.652 0.06,1.359l0,6.063c0,1.041 -0.06,1.679 -0.182,1.913c-0.121,0.235 -0.444,0.352 -0.968,0.352l0,-10.265c0.397,0 0.669,0.046 0.813,0.14l0,0Zm-0.038,12.824c0.874,0 1.528,-0.053 1.963,-0.159c0.434,-0.106 0.799,-0.293 1.095,-0.559c0.295,-0.267 0.502,-0.637 0.621,-1.11c0.118,-0.472 0.189,-1.41 0.189,-2.811l0,-5.493c0,-1.479 -0.052,-2.471 -0.133,-2.975c-0.081,-0.505 -0.284,-0.963 -0.608,-1.375c-0.324,-0.411 -0.798,-0.707 -1.421,-0.887c-0.622,-0.18 -1.638,-0.27 -3.404,-0.27l-2.723,0l0,15.639l4.421,0l0,0Z"/><path id="path48" d="M27.695,16.488c1.766,0 2.782,0.09 3.404,0.27c0.623,0.18 1.097,0.476 1.421,0.888c0.324,0.411 0.527,0.869 0.608,1.374c0.081,0.504 0.133,1.496 0.133,2.975l0,5.493c0,1.401 -0.071,2.339 -0.189,2.811c-0.119,0.473 -0.326,0.843 -0.621,1.11c-0.296,0.266 -0.661,0.453 -1.095,0.559c-0.434,0.106 -1.089,0.159 -1.963,0.159l-4.421,0l0,-15.639l2.723,0m0.923,12.94c0.524,0 0.847,-0.117 0.968,-0.352c0.122,-0.234 0.182,-0.872 0.182,-1.913l0,-6.063c0,-0.707 -0.02,-1.16 -0.06,-1.359c-0.041,-0.199 -0.133,-0.346 -0.277,-0.438c-0.144,-0.094 -0.416,-0.14 -0.813,-0.14l0,10.265m-0.923,-13.298l-2.723,0l-0.322,0l0,16.355l4.743,0c0.906,0 1.571,-0.054 2.032,-0.167c0.481,-0.118 0.894,-0.33 1.228,-0.631c0.347,-0.313 0.592,-0.748 0.729,-1.291c0.133,-0.531 0.201,-1.51 0.201,-2.908l0,-5.492c0,-1.426 -0.048,-2.477 -0.138,-3.039c-0.091,-0.568 -0.321,-1.089 -0.683,-1.548c-0.366,-0.464 -0.898,-0.8 -1.582,-0.997c-0.674,-0.195 -1.749,-0.282 -3.485,-0.282l0,0Zm1.245,12.92l0,-9.515c0.223,0.021 0.305,0.062 0.329,0.077c0.044,0.029 0.098,0.078 0.125,0.208c0.019,0.097 0.052,0.394 0.052,1.28l0,6.063c0,1.36 -0.106,1.672 -0.139,1.735c-0.007,0.014 -0.067,0.11 -0.367,0.152l0,0Z" style="fill:#fbfbed;fill-opacity:0.3;fill-rule:nonzero;"/><path id="path52" d="M39.25,28.332c0,0.757 -0.034,1.235 -0.101,1.434c-0.068,0.199 -0.361,0.299 -0.584,0.299c-0.217,0 -0.362,-0.096 -0.436,-0.288c-0.073,-0.193 -0.11,-0.632 -0.11,-1.319l0,-4.133c0,-0.713 0.033,-1.157 0.097,-1.334c0.065,-0.176 0.205,-0.265 0.422,-0.265c0.223,0 0.522,0.101 0.598,0.303c0.076,0.202 0.114,0.634 0.114,1.295l0,4.008Zm-4.746,-11.844l0,15.639l3.285,0l0.228,-0.996c0.297,0.4 0.624,0.701 0.983,0.901c0.358,0.2 0.893,0.3 1.307,0.3c0.577,0 1.075,-0.169 1.494,-0.506c0.42,-0.337 0.686,-0.735 0.8,-1.195c0.114,-0.459 0.171,-1.157 0.171,-2.095l0,-4.387c0,-0.945 -0.02,-1.561 -0.057,-1.85c-0.038,-0.289 -0.15,-0.584 -0.336,-0.886c-0.187,-0.302 -0.458,-0.536 -0.813,-0.703c-0.355,-0.168 -0.774,-0.251 -1.257,-0.251c-0.42,0 -0.957,0.093 -1.316,0.277c-0.358,0.184 -0.682,0.464 -0.974,0.839l0,-5.087l-3.515,0l0,0Z"/><path id="path56" d="M38.019,16.488l0,5.087c0.292,-0.375 0.616,-0.655 0.974,-0.839c0.359,-0.184 0.896,-0.277 1.316,-0.277c0.483,0 0.902,0.083 1.257,0.251c0.355,0.167 0.626,0.401 0.813,0.703c0.186,0.302 0.298,0.597 0.336,0.886c0.037,0.289 0.056,0.905 0.056,1.85l0,4.387c0,0.938 -0.056,1.636 -0.17,2.095c-0.114,0.46 -0.38,0.858 -0.8,1.195c-0.419,0.337 -0.917,0.506 -1.494,0.506c-0.414,0 -0.949,-0.1 -1.307,-0.3c-0.359,-0.2 -0.686,-0.501 -0.983,-0.901l-0.228,0.996l-3.285,0l0,-15.639l3.515,0m0.546,13.577c0.223,0 0.516,-0.1 0.584,-0.299c0.067,-0.199 0.101,-0.677 0.101,-1.434l0,-4.008c0,-0.661 -0.038,-1.093 -0.114,-1.295c-0.076,-0.202 -0.375,-0.303 -0.598,-0.303c-0.217,0 -0.357,0.089 -0.422,0.265c-0.064,0.177 -0.097,0.621 -0.097,1.334l0,4.133c0,0.687 0.037,1.126 0.11,1.319c0.074,0.192 0.219,0.288 0.436,0.288m-0.224,-13.935l-0.322,0l-3.515,0l-0.322,0l0,16.355l3.858,0l0.061,-0.27l0.085,-0.372c0.211,0.208 0.435,0.378 0.67,0.509c0.446,0.25 1.06,0.338 1.451,0.338c0.643,0 1.209,-0.193 1.682,-0.573c0.479,-0.385 0.789,-0.852 0.922,-1.39c0.123,-0.496 0.182,-1.212 0.182,-2.191l0,-4.387c0,-0.97 -0.019,-1.591 -0.06,-1.902c-0.045,-0.343 -0.176,-0.692 -0.389,-1.037c-0.221,-0.358 -0.542,-0.637 -0.953,-0.83c-0.393,-0.185 -0.858,-0.279 -1.382,-0.279c-0.391,0 -1.006,0.081 -1.451,0.31c-0.179,0.092 -0.352,0.207 -0.517,0.342l0,-4.265l0,-0.358l0,0Zm0.224,13.577c-0.113,0 -0.126,-0.034 -0.14,-0.071c-0.019,-0.051 -0.084,-0.289 -0.084,-1.178l0,-4.133c0,-0.927 0.056,-1.152 0.073,-1.199c0.006,-0.016 0.01,-0.019 0.014,-0.021c0.008,-0.005 0.038,-0.02 0.11,-0.02c0.145,0 0.272,0.059 0.305,0.093c0.028,0.084 0.085,0.352 0.085,1.146l0,4.008c0,0.904 -0.049,1.199 -0.075,1.291c-0.035,0.032 -0.155,0.084 -0.288,0.084l0,0Z" style="fill:#fbfbed;fill-opacity:0.3;fill-rule:nonzero;"/><defs><radialGradient id="_Radial1" cx="0" cy="0" r="1" gradientUnits="userSpaceOnUse" gradientTransform="matrix(18.2643,0,0,17.7257,24.8145,12.5641)"><stop offset="0" style="stop-color:#fff;stop-opacity:0.4"/><stop offset="1" style="stop-color:#fff;stop-opacity:0"/></radialGradient></defs></svg>