<?xml version="1.0" encoding="UTF-8" standalone="no"?><!DOCTYPE svg PUBLIC "-//W3C//DTD SVG 1.1//EN" "http://www.w3.org/Graphics/SVG/1.1/DTD/svg11.dtd"><svg width="100%" height="100%" viewBox="0 0 50 50" version="1.1" xmlns="http://www.w3.org/2000/svg" xmlns:xlink="http://www.w3.org/1999/xlink" xml:space="preserve" style="fill-rule:evenodd;clip-rule:evenodd;stroke-linejoin:round;stroke-miterlimit:1.41421;"><path id="post.-linkedin" d="M38.554,5.817l-28.557,0c-1.963,0 -3.569,1.632 -3.569,3.625l0,29c0,1.994 1.606,3.625 3.569,3.625l28.557,0c1.964,0 3.57,-1.631 3.57,-3.625l0,-29c0,-1.993 -1.606,-3.625 -3.57,-3.625Zm-21.417,30.813l-5.355,0l0,-16.313l5.355,0l0,16.313Zm-2.678,-19.394c-1.784,0 -3.212,-1.45 -3.212,-3.262c0,-1.813 1.428,-3.263 3.212,-3.263c1.785,0 3.213,1.45 3.213,3.263c0,1.812 -1.428,3.262 -3.213,3.262Zm22.311,19.394l-5.355,0l0,-9.606c0,-1.45 -1.249,-2.719 -2.677,-2.719c-1.428,0 -2.677,1.269 -2.677,2.719l0,9.606l-5.355,0l0,-16.313l5.355,0l0,2.175c0.892,-1.45 2.855,-2.537 4.462,-2.537c3.391,0 6.247,2.9 6.247,6.344l0,10.331Z" style="fill:#fff;fill-rule:nonzero;stroke:#000;stroke-width:1.29px;"/></svg>