<?xml version="1.0" encoding="UTF-8" standalone="no"?><!DOCTYPE svg PUBLIC "-//W3C//DTD SVG 1.1//EN" "http://www.w3.org/Graphics/SVG/1.1/DTD/svg11.dtd"><svg width="100%" height="100%" viewBox="0 0 50 50" version="1.1" xmlns="http://www.w3.org/2000/svg" xmlns:xlink="http://www.w3.org/1999/xlink" xml:space="preserve" style="fill-rule:evenodd;clip-rule:evenodd;stroke-linecap:round;stroke-linejoin:round;stroke-miterlimit:1.5;"><path d="M43.963,12.629l0,-2.952l-37.353,0l0,2.952l37.353,0Zm0,24.436l0,-23.053l-37.353,0l0,23.053l37.353,0Zm1.339,-28.08l0,28.772c0,0.382 -0.299,0.691 -0.669,0.691l-38.692,0c-0.37,0 -0.67,-0.309 -0.67,-0.691l0,-28.772c0,-0.381 0.3,-0.691 0.67,-0.691l38.692,0c0.37,0 0.669,0.31 0.669,0.691Z" style="fill-rule:nonzero;"/><path d="M9.447,11.154c0,-0.183 -0.072,-0.361 -0.196,-0.49c-0.125,-0.128 -0.297,-0.202 -0.473,-0.202c-0.176,0 -0.349,0.074 -0.473,0.202c-0.125,0.129 -0.197,0.307 -0.197,0.49c0,0.181 0.072,0.359 0.197,0.488c0.124,0.129 0.297,0.203 0.473,0.203c0.176,0 0.348,-0.074 0.473,-0.203c0.124,-0.129 0.196,-0.307 0.196,-0.488Zm2.289,0c0,-0.183 -0.072,-0.361 -0.196,-0.49c-0.125,-0.128 -0.297,-0.202 -0.474,-0.202c-0.176,0 -0.348,0.074 -0.473,0.202c-0.125,0.129 -0.196,0.308 -0.196,0.49c0,0.181 0.071,0.359 0.196,0.488c0.125,0.129 0.297,0.203 0.473,0.203c0.177,0 0.349,-0.074 0.474,-0.203c0.124,-0.129 0.196,-0.307 0.196,-0.488Zm2.288,0c0,-0.183 -0.071,-0.361 -0.195,-0.49c-0.125,-0.128 -0.298,-0.202 -0.474,-0.202c-0.176,0 -0.349,0.074 -0.473,0.202c-0.125,0.129 -0.197,0.307 -0.197,0.49c0,0.181 0.072,0.359 0.197,0.488c0.124,0.129 0.297,0.203 0.473,0.203c0.176,0 0.349,-0.074 0.474,-0.203c0.124,-0.129 0.195,-0.307 0.195,-0.488Zm29.939,-1.477l0,2.952l-37.353,0l0,-2.952l37.353,0Z" style="fill:#3bc4de;fill-rule:nonzero;"/><path d="M33.901,25.349l-13.235,8.611l0.093,-17.364l13.142,8.753Z" style="fill:#e8876c;stroke:#000;stroke-width:1.29px;"/><path d="M13.829,10.664c0.124,0.129 0.195,0.307 0.195,0.49c0,0.181 -0.071,0.359 -0.195,0.488c-0.125,0.129 -0.298,0.203 -0.474,0.203c-0.176,0 -0.349,-0.074 -0.473,-0.203c-0.125,-0.129 -0.197,-0.307 -0.197,-0.488c0,-0.183 0.072,-0.361 0.197,-0.49c0.124,-0.128 0.297,-0.202 0.473,-0.202c0.176,0 0.349,0.074 0.474,0.202Z" style="fill-rule:nonzero;"/><path d="M11.54,10.664c0.124,0.129 0.196,0.307 0.196,0.49c0,0.181 -0.072,0.359 -0.196,0.488c-0.125,0.129 -0.297,0.203 -0.474,0.203c-0.176,0 -0.348,-0.074 -0.473,-0.203c-0.125,-0.129 -0.196,-0.307 -0.196,-0.488c0,-0.182 0.071,-0.361 0.196,-0.49c0.125,-0.128 0.297,-0.202 0.473,-0.202c0.177,0 0.349,0.074 0.474,0.202Z" style="fill-rule:nonzero;"/><path d="M9.251,10.664c0.124,0.129 0.196,0.307 0.196,0.49c0,0.181 -0.072,0.359 -0.196,0.488c-0.125,0.129 -0.297,0.203 -0.473,0.203c-0.176,0 -0.349,-0.074 -0.473,-0.203c-0.125,-0.129 -0.197,-0.307 -0.197,-0.488c0,-0.183 0.072,-0.361 0.197,-0.49c0.124,-0.128 0.297,-0.202 0.473,-0.202c0.176,0 0.348,0.074 0.473,0.202Z" style="fill-rule:nonzero;"/></svg>