<?xml version="1.0" encoding="UTF-8" standalone="no"?><!DOCTYPE svg PUBLIC "-//W3C//DTD SVG 1.1//EN" "http://www.w3.org/Graphics/SVG/1.1/DTD/svg11.dtd"><svg width="100%" height="100%" viewBox="0 0 50 50" version="1.1" xmlns="http://www.w3.org/2000/svg" xmlns:xlink="http://www.w3.org/1999/xlink" xml:space="preserve" style="fill-rule:evenodd;clip-rule:evenodd;stroke-linecap:round;stroke-linejoin:round;stroke-miterlimit:1.5;"><ellipse cx="24.324" cy="23.309" rx="17.796" ry="17.728" style="fill:#fff;stroke:#000;stroke-width:0.87px;"/><path d="M34.222,18.749c-1.102,6.116 -7.215,11.307 -9.069,12.495c-1.822,1.176 -3.517,-0.494 -4.121,-1.745c-0.699,-1.419 -2.775,-9.163 -3.336,-9.815c-0.53,-0.641 -2.182,0.652 -2.182,0.652l-0.795,-1.04c0,0 3.326,-3.952 5.879,-4.446c2.68,-0.515 2.68,4.088 3.315,6.673c0.636,2.48 1.049,3.888 1.6,3.888c0.541,0 1.589,-1.376 2.734,-3.499c1.144,-2.122 -0.043,-4.004 -2.289,-2.659c0.901,-5.338 9.355,-6.62 8.264,-0.504Z" style="fill:#0a0000;"/></svg>