<?xml version="1.0" encoding="UTF-8" standalone="no"?><!DOCTYPE svg PUBLIC "-//W3C//DTD SVG 1.1//EN" "http://www.w3.org/Graphics/SVG/1.1/DTD/svg11.dtd"><svg width="100%" height="100%" viewBox="0 0 1024 768" version="1.1" xmlns="http://www.w3.org/2000/svg" xmlns:xlink="http://www.w3.org/1999/xlink" xml:space="preserve" style="fill-rule:evenodd;clip-rule:evenodd;stroke-linejoin:round;stroke-miterlimit:1.41421;"><rect id="Plan-de-travail1" x="0" y="0" width="1024" height="768" style="fill:none;"/><clipPath id="_clip1"><rect id="Plan-de-travail11" x="0" y="0" width="1024" height="768"/></clipPath><g clip-path="url(#_clip1)"><path d="M760.91,-436.247l-10.001,-11.387l-1073.95,656.303l10.001,11.386l1073.95,-656.302Z" style="fill:#a8beed;"/><path d="M811.913,-362.564l-10.002,-11.386l-1073.95,656.302l10.001,11.387l1073.95,-656.303Z" style="fill:#a8beed;"/><path d="M921.432,-320.737l-10.001,-11.386l-1073.95,656.302l10.002,11.387l1073.95,-656.303Z" style="fill:#a8beed;"/><path d="M1033.63,-288.582l-10.002,-11.386l-1073.95,656.302l10.001,11.386l1073.95,-656.302Z" style="fill:#a8beed;"/><path d="M1054.69,-190.397l-10.001,-11.387l-1073.95,656.303l10.001,11.386l1073.95,-656.302Z" style="fill:#a8beed;"/><path d="M1064.21,-61.195l-10.001,-11.386l-1073.95,656.302l10.001,11.386l1073.95,-656.302Z" style="fill:#a8beed;"/><path d="M1049.2,65.051l-10.001,-11.387l-1073.95,656.303l10.001,11.386l1073.95,-656.302Z" style="fill:#a8beed;"/><path d="M1091.89,188.171l-10.001,-11.386l-1073.95,656.302l10.002,11.387l1073.95,-656.303Z" style="fill:#a8beed;"/><path d="M1143.3,299.414l-10.001,-11.386l-1073.95,656.302l10.002,11.386l1073.95,-656.302Z" style="fill:#a8beed;"/><path d="M1200.23,382.062l-10.002,-11.386l-1073.95,656.302l10.001,11.386l1073.95,-656.302Z" style="fill:#a8beed;"/><path d="M1300.34,448.831l-10.001,-11.386l-1073.95,656.302l10.001,11.386l1073.95,-656.302Z" style="fill:#a8beed;"/><path d="M1362.3,528.938l-10.001,-11.386l-1073.95,656.302l10.002,11.386l1073.95,-656.302Z" style="fill:#a8beed;"/><path d="M711.122,-490.809l-10.001,-11.387l-1073.95,656.303l10.001,11.386l1073.95,-656.302Z" style="fill:#a8beed;"/></g></svg>