<?xml version="1.0" encoding="UTF-8" standalone="no"?><!DOCTYPE svg PUBLIC "-//W3C//DTD SVG 1.1//EN" "http://www.w3.org/Graphics/SVG/1.1/DTD/svg11.dtd"><svg width="100%" height="100%" viewBox="0 0 320 568" version="1.1" xmlns="http://www.w3.org/2000/svg" xmlns:xlink="http://www.w3.org/1999/xlink" xml:space="preserve" style="fill-rule:evenodd;clip-rule:evenodd;stroke-linejoin:round;stroke-miterlimit:1.41421;"><rect id="Plan-de-travail1" x="0" y="0" width="320" height="568" style="fill:none;"/><clipPath id="_clip1"><rect id="Plan-de-travail11" x="0" y="0" width="320" height="568"/></clipPath><g clip-path="url(#_clip1)"><rect x="-2.743" y="40.3" width="320.339" height="378.189"/><path d="M79.722,376.266c-13.467,-3.053 -24.92,-18.29 -25.631,-31.718c-1.713,-32.368 -4.534,-132.717 -0.583,-167.089c1.987,-17.281 22.883,-30.189 40.194,-34.551c23.981,-6.041 81.942,-6.136 103.69,-1.699c12.911,2.634 26.81,15.493 26.796,28.32c-0.041,35.974 3.18,141.35 0.582,173.32c-1.361,16.755 -23.956,27.276 -40.776,31.152c-24.175,5.569 -82.622,7.174 -104.272,2.265Z"/><path d="M79.722,376.266c-13.467,-3.053 -24.92,-18.29 -25.631,-31.718c-1.713,-32.368 -4.534,-132.717 -0.583,-167.089c1.987,-17.281 22.883,-30.189 40.194,-34.551c23.981,-6.041 81.942,-6.136 103.69,-1.699c12.911,2.634 26.81,15.493 26.796,28.32c-0.041,35.974 3.18,141.35 0.582,173.32c-1.361,16.755 -23.956,27.276 -40.776,31.152c-24.175,5.569 -82.622,7.174 -104.272,2.265Z"/><path d="M220.982,127.049c0.485,2.36 27.798,14.654 33.786,27.754c6.602,14.443 5.321,39.186 5.825,58.906c0.874,34.173 1.651,105.634 -0.582,132.538c-1.54,18.554 -19.148,36.511 -37.282,42.48c-24.951,8.213 -112.815,5.759 -112.427,6.797c0.388,1.038 90.097,2.832 114.757,-0.566c12.86,-1.773 26.02,-11.612 33.204,-19.825c6.883,-7.867 9.403,-19.135 9.903,-29.452c1.65,-34.079 2.718,-140.846 0,-175.019c-0.898,-11.283 -8.447,-22.75 -16.311,-30.019c-7.864,-7.269 -31.359,-15.954 -30.873,-13.594Z" style="fill:#1c1b69;"/><path d="M56.641,182.687c2.758,-19.912 21.029,-36.173 40.436,-39.35c24.686,-4.042 79.452,-7.322 103.774,-1.717c17.808,4.104 40.991,15.831 42.578,33.536c3.246,36.2 3.686,137.778 2.157,168.175c-0.765,15.206 -21.013,30.815 -36.483,34.529c-25.545,6.133 -92.374,6.289 -117.842,0.59c-16.182,-3.622 -32.132,-18.738 -34.97,-34.788c-5.77,-32.627 -4.323,-127.238 0.35,-160.975Z" style="fill:#f8c5ce;"/><path d="M79.722,376.266c-13.467,-3.053 -24.92,-18.29 -25.631,-31.718c-1.713,-32.368 -4.534,-132.717 -0.583,-167.089c1.987,-17.281 22.883,-30.189 40.194,-34.551c23.981,-6.041 81.942,-6.136 103.69,-1.699c12.911,2.634 26.81,15.493 26.796,28.32c-0.041,35.974 3.18,141.35 0.582,173.32c-1.361,16.755 -23.956,27.276 -40.776,31.152c-24.175,5.569 -82.622,7.174 -104.272,2.265Z" style="fill:#302eb5;"/><path d="M53.141,322.278c1.604,-0.885 3.154,-1.734 4.617,-2.539c15.437,-8.496 43.787,-18.03 55.34,-22.089c4.443,-1.562 9.391,-3.356 13.981,-2.266c8.349,1.982 24.174,10.478 36.116,14.16c11.584,3.571 24.854,6.042 35.534,7.93c8.711,1.54 19.968,1.04 26.915,2.89c-0.148,9.203 -0.424,16.946 -0.874,22.485c-1.361,16.755 -23.956,27.276 -40.776,31.152c-24.175,5.569 -82.622,7.174 -104.272,2.265c-13.467,-3.053 -24.92,-18.29 -25.631,-31.718c-0.297,-5.613 -0.628,-13.269 -0.95,-22.27Z" style="fill:url(#_Linear2);"/><path d="M170.606,166.529c11.415,0.698 20.447,9.253 20.447,19.69c0,10.893 -9.838,19.736 -21.955,19.736c-3.852,0 -7.473,-0.893 -10.622,-2.462c0.499,0.03 1.002,0.046 1.509,0.046c12.117,0 21.954,-8.844 21.954,-19.736c0,-7.43 -4.577,-13.907 -11.333,-17.274Z" style="fill:#fff;"/></g><defs><linearGradient id="_Linear2" x1="0" y1="0" x2="1" y2="0" gradientUnits="userSpaceOnUse" gradientTransform="matrix(172.503,0,0,84.1449,53.141,337.123)"><stop offset="0" style="stop-color:#fff;stop-opacity:1"/><stop offset="0" style="stop-color:#7574ba;stop-opacity:1"/><stop offset="0.15" style="stop-color:#4e4ca6;stop-opacity:1"/><stop offset="0.33" style="stop-color:#2e2c96;stop-opacity:1"/><stop offset="1" style="stop-color:#232190;stop-opacity:1"/></linearGradient></defs></svg>