<?xml version="1.0" encoding="UTF-8" standalone="no"?><!DOCTYPE svg PUBLIC "-//W3C//DTD SVG 1.1//EN" "http://www.w3.org/Graphics/SVG/1.1/DTD/svg11.dtd"><svg width="100%" height="100%" viewBox="0 0 414 736" version="1.1" xmlns="http://www.w3.org/2000/svg" xmlns:xlink="http://www.w3.org/1999/xlink" xml:space="preserve" style="fill-rule:evenodd;clip-rule:evenodd;stroke-linecap:round;stroke-linejoin:round;stroke-miterlimit:1.5;"><rect id="Plan-de-travail1" x="0" y="0" width="414" height="736" style="fill:none;"/><clipPath id="_clip1"><rect id="Plan-de-travail11" x="0" y="0" width="414" height="736"/></clipPath><g clip-path="url(#_clip1)"><path d="M363.557,500.766l-45.984,0l73.915,-65.786l0,40.926l-27.931,24.86Z" style="fill:#ffce00;stroke:#000;stroke-width:0.02px;"/><path d="M295.361,500.766l-37.162,0l133.289,-118.63l0,33.075l-96.127,85.555Z" style="fill:#ffce00;stroke:#000;stroke-width:0.02px;"/><path d="M235.987,500.766l-37.999,0l193.5,-172.218l0,33.819l-155.501,138.399Z" style="fill:#ffce00;stroke:#000;stroke-width:0.02px;"/><path d="M175.776,500.766l-39.877,0l255.589,-227.479l0,35.491l-215.712,191.988Z" style="fill:#ffce00;stroke:#000;stroke-width:0.02px;"/><path d="M113.687,500.766l-38.367,0l316.168,-281.396l0,34.148l-277.801,247.248Z" style="fill:#ffce00;stroke:#000;stroke-width:0.02px;"/><path d="M391.488,199.601l-338.381,301.165l-33.496,0l0,-6.742l371.877,-330.977l0,36.554Z" style="fill:#ffce00;stroke:#000;stroke-width:0.02px;"/><path d="M391.488,143.278l-371.877,330.976l0,-37.277l367.23,-326.841l4.647,0l0,33.142Z" style="fill:#ffce00;stroke:#000;stroke-width:0.02px;"/><path d="M19.611,417.207l0,-33.81l307.029,-273.261l37.988,0l-345.017,307.071Z" style="fill:#ffce00;stroke:#000;stroke-width:0.02px;"/><path d="M304.427,110.136l-284.816,253.491l0,-28.93l252.311,-224.561l32.505,0Z" style="fill:#ffce00;stroke:#000;stroke-width:0.02px;"/><path d="M19.611,314.928l0,-26.111l200.762,-178.681l29.337,0l-230.099,204.792Z" style="fill:#ffce00;stroke:#000;stroke-width:0.02px;"/><path d="M19.611,269.048l0,-31.006l143.712,-127.906l34.837,0l-178.549,158.912Z" style="fill:#ffce00;stroke:#000;stroke-width:0.02px;"/><path d="M19.611,218.273l0,-34.157l83.122,-73.98l38.378,0l-121.5,108.137Z" style="fill:#ffce00;stroke:#000;stroke-width:0.02px;"/><path d="M19.611,164.346l0,-36.569l19.821,-17.641l41.088,0l-60.909,54.21Z" style="fill:#ffce00;stroke:#000;stroke-width:0.02px;"/><path d="M39.432,110.136l-19.821,17.641l0,-17.641l19.821,0Z" style="fill:#ff3700;stroke:#000;stroke-width:0.02px;"/><path d="M102.733,110.136l-83.122,73.98l0,-19.77l60.909,-54.21l22.213,0Z" style="fill:#ff3700;stroke:#000;stroke-width:0.02px;"/><path d="M163.323,110.136l-143.712,127.906l0,-19.769l121.5,-108.137l22.212,0Z" style="fill:#ff3700;stroke:#000;stroke-width:0.02px;"/><path d="M220.373,110.136l-200.762,178.681l0,-19.769l178.549,-158.912l22.213,0Z" style="fill:#ff3700;stroke:#000;stroke-width:0.02px;"/><path d="M271.922,110.136l-252.311,224.561l0,-19.769l230.099,-204.792l22.212,0Z" style="fill:#ff3700;stroke:#000;stroke-width:0.02px;"/><path d="M326.64,110.136l-307.029,273.261l0,-19.77l284.816,-253.491l22.213,0Z" style="fill:#ff3700;stroke:#000;stroke-width:0.02px;"/><path d="M386.841,110.136l-367.23,326.841l0,-19.77l345.017,-307.071l22.213,0Z" style="fill:#ff3700;"/><path d="M392.721,142.181l0,19.769l-1.233,1.097l0,-19.769l-371.877,330.976l373.11,-332.073Z" style="fill:#ff3700;stroke:#000;stroke-width:0.02px;"/><path d="M391.488,163.047l-371.877,330.977l0,-19.77l371.877,-330.976l0,19.769Z" style="fill:#ff3700;stroke:#000;stroke-width:0.02px;"/><path d="M391.488,199.601l1.233,-1.097l0,19.769l-317.401,282.493l316.168,-281.396l0,-19.769Z" style="fill:#ff3700;stroke:#000;stroke-width:0.02px;"/><path d="M391.488,199.601l-338.381,301.165l338.381,-301.165Z" style="fill:#ff3700;stroke:#000;stroke-width:0.02px;"/><path d="M391.488,219.37l-316.168,281.396l-22.213,0l338.381,-301.165l0,19.769Z" style="fill:#ff3700;stroke:#000;stroke-width:0.02px;"/><path d="M391.488,253.518l-277.801,247.248l277.801,-247.248Z" style="fill:#ff3700;stroke:#000;stroke-width:0.02px;"/><path d="M391.488,253.518l0,19.769l-255.589,227.479l-22.212,0l277.801,-247.248Z" style="fill:#ff3700;stroke:#000;stroke-width:0.02px;"/><path d="M392.721,307.681l0,19.77l-1.233,1.097l0,-19.77l-215.712,191.988l216.945,-193.085Z" style="fill:#ff3700;stroke:#000;stroke-width:0.02px;"/><path d="M197.988,500.766l193.5,-172.218l-193.5,172.218Z" style="fill:#ff3700;stroke:#000;stroke-width:0.02px;"/><path d="M391.488,328.548l-193.5,172.218l-22.212,0l215.712,-191.988l0,19.77Z" style="fill:#ff3700;stroke:#000;stroke-width:0.02px;"/><path d="M392.721,361.27l0,19.769l-1.233,1.097l0,-19.769l-155.501,138.399l156.734,-139.496Z" style="fill:#ff3700;stroke:#000;stroke-width:0.02px;"/><path d="M391.488,362.367l0,19.769l-133.289,118.63l-22.212,0l155.501,-138.399Z" style="fill:#ff3700;stroke:#000;stroke-width:0.02px;"/><path d="M392.721,414.114l0,19.769l-1.233,1.097l0,-19.769l-96.127,85.555l97.36,-86.652Z" style="fill:#ff3700;stroke:#000;stroke-width:0.02px;"/><path d="M317.573,500.766l73.915,-65.786l-73.915,65.786Z" style="fill:#ff3700;stroke:#000;stroke-width:0.02px;"/><path d="M391.488,415.211l0,19.769l-73.915,65.786l-22.212,0l96.127,-85.555Z" style="fill:#ff3700;stroke:#000;stroke-width:0.02px;"/><path d="M392.721,474.81l0,19.769l-1.233,1.097l0,-19.77l-27.931,24.86l29.164,-25.956Z" style="fill:#ff3700;stroke:#000;stroke-width:0.02px;"/><path d="M391.488,495.676l-5.719,5.09l-22.212,0l27.931,-24.86l0,19.77Z" style="fill:#ff3700;stroke:#000;stroke-width:0.02px;"/><path d="M185.448,500.677c0.953,-14.723 2.734,-29.77 5.483,-45.164l-12.092,-112.556l-39.56,6.057c-10.124,-2.722 -17.781,-9.472 -22.241,-21.442c-7.6,-14.688 -8.732,-31.605 -9.537,-48.635l-4.849,-0.104l-1.709,38.722l-7.182,0.029l1.957,-40.322c-15.324,-1.254 -27.707,-7.445 -34.852,-22.433c-8.211,-12.888 -8.505,-27.522 2.762,-44.704c7.883,-6.337 17.076,-11.953 28.492,-16.347l25.636,14.315l1.773,-12.471l4.655,-19.517l-4.95,-28.638c1.908,-9.678 7.843,-17.704 17.805,-24.077l28.451,-8.293c0.613,-9.473 5.648,-17.635 18.039,-23.617c5.953,4.206 10.684,9.963 14.29,17.148l33.686,1.038l-1.655,-6.181l-15.47,4.052l-1.908,-7.654l15.911,-12.169l-1.891,-22.134c16.07,-15.05 35.61,-21.398 58.253,-19.96l14.801,26.268l24.277,3.339l-0.825,5.404l-23.598,4.666l7.259,12.234l2.503,0.286l-0.843,3.45l-3.968,1.418l-1.412,2.727l-2.454,4.417l-0.091,3.38l3.867,1.401l-3.096,1.894l-0.58,3.485l-2.388,9.709l-8.104,-0.127l-1.412,2.926l-4.815,1.772l-0.296,5.07l11.823,-0.44l0.62,3.888l-12.666,25.586l-0.258,5.332l6.823,22.824l-6.112,4.485l0.941,11.146l9.079,2.096l-0.721,4.501l-7.708,6.088l6.253,62.988l16.351,9.06l-3.701,25.241l-30.165,13.934l-2.49,43.268l-12.838,84.427c-3.785,16.189 -8.624,28.765 -14.774,36.914l-58.579,0Z" style="stroke:#ffcd00;stroke-width:1.4px;"/><text x="114.584px" y="624.831px" style="font-family:'ArialRoundedMTBold', 'Arial Rounded MT Bold', sans-serif;font-size:71.813px;fill:#0f0f0f;">D<tspan x="160.421px 197.218px 218.594px 235.374px 250.855px 287.651px " y="624.831px 624.831px 624.831px 624.831px 624.831px 624.831px ">éfi 66</tspan></text></g></svg>