<?xml version="1.0" encoding="UTF-8" standalone="no"?><!DOCTYPE svg PUBLIC "-//W3C//DTD SVG 1.1//EN" "http://www.w3.org/Graphics/SVG/1.1/DTD/svg11.dtd"><svg width="100%" height="100%" viewBox="0 0 414 736" version="1.1" xmlns="http://www.w3.org/2000/svg" xmlns:xlink="http://www.w3.org/1999/xlink" xml:space="preserve" style="fill-rule:evenodd;clip-rule:evenodd;stroke-linejoin:round;stroke-miterlimit:1.41421;"><ellipse cx="206.062" cy="335.034" rx="188.997" ry="197.809" style="fill:#efc22d;"/><rect x="96.212" y="360.047" width="20.607" height="27.122" style="fill-rule:nonzero;"/><rect x="300.406" y="360.047" width="20.607" height="27.122" style="fill-rule:nonzero;"/><path d="M162.412,409.373c0,6.592 -4.612,11.933 -10.302,11.933l-36.997,0c-5.69,0 -10.303,-5.341 -10.303,-11.933l0,-72.143c0,-6.591 4.613,-11.934 10.303,-11.934l36.997,0c5.69,0 10.302,5.343 10.302,11.934l0,72.143Z" style="fill:#009970;fill-rule:nonzero;"/><path d="M311.804,409.373c0,6.592 -4.613,11.933 -10.303,11.933l-36.997,0c-5.689,0 -10.303,-5.341 -10.303,-11.933l0,-72.143c0,-6.591 4.614,-11.934 10.303,-11.934l36.997,0c5.69,0 10.303,5.343 10.303,11.934l0,72.143Z" style="fill:#009970;fill-rule:nonzero;"/><path d="M145.954,368.248c0,6.591 -4.613,11.935 -10.303,11.935l-25.404,0c-5.69,0 -10.303,-5.344 -10.303,-11.935l0,-36.437c0,-6.591 4.613,-11.934 10.303,-11.934l25.404,0c5.69,0 10.303,5.343 10.303,11.934l0,36.437Z" style="fill:#00c994;fill-rule:nonzero;"/><path d="M317.281,368.248c0,6.591 -4.613,11.935 -10.303,11.935l-25.404,0c-5.69,0 -10.303,-5.344 -10.303,-11.935l0,-36.437c0,-6.591 4.613,-11.934 10.303,-11.934l25.404,0c5.69,0 10.303,5.343 10.303,11.934l0,36.437Z" style="fill:#00c994;fill-rule:nonzero;"/><path d="M286.586,453.309c0,20.972 -14.678,37.972 -32.783,37.972l-90.382,0c-18.105,0 -32.783,-17 -32.783,-37.972l0,-168.151c0,-20.971 14.678,-37.973 32.783,-37.973l90.382,0c18.105,0 32.783,17.002 32.783,37.973l0,168.151Z" style="fill:#00a679;fill-rule:nonzero;"/><path d="M253.803,247.185l-11.224,0l0,244.096l11.224,0c18.105,0 32.783,-17 32.783,-37.972l0,-168.151c0,-20.971 -14.678,-37.973 -32.783,-37.973" style="fill:#007856;fill-rule:nonzero;"/><path d="M269.951,457.07c0,16.497 -11.546,29.872 -25.789,29.872l-71.1,0c-14.242,0 -25.789,-13.375 -25.789,-29.872l0,-132.276c0,-16.498 11.547,-29.872 25.789,-29.872l71.1,0c14.243,0 25.789,13.374 25.789,29.872l0,132.276Z" style="fill:#00bd8a;fill-rule:nonzero;"/><path d="M305.553,236.878c0,6.591 -4.613,11.933 -10.303,11.933l-173.275,0c-5.691,0 -10.304,-5.342 -10.304,-11.933l0,-52.614c0,-6.591 4.613,-11.935 10.304,-11.935l173.275,0c5.69,0 10.303,5.344 10.303,11.935l0,52.614Z" style="fill:#ff6200;fill-rule:nonzero;"/><path d="M111.672,227.658l0,9.221c0,6.59 4.612,11.933 10.302,11.933l173.276,0c5.69,0 10.304,-5.343 10.304,-11.933l0,-9.221l-193.882,0Z" style="fill:#c94e00;fill-rule:nonzero;"/><rect x="111.672" y="191.964" width="193.882" height="18.608" style="fill:#ff7c3b;fill-rule:nonzero;"/><rect x="160.483" y="169.816" width="16.347" height="80.641" style="fill-rule:nonzero;"/><rect x="240.396" y="169.816" width="16.346" height="80.641" style="fill-rule:nonzero;"/><path d="M247.66,456.601c0,6.591 -4.612,11.935 -10.302,11.935l-57.49,0c-5.691,0 -10.304,-5.344 -10.304,-11.935l0,-67.99c0,-6.592 4.613,-11.935 10.304,-11.935l57.49,0c5.69,0 10.302,5.343 10.302,11.935l0,67.99Z" style="fill:#17cf9e;fill-rule:nonzero;"/><path d="M233.131,450.213c0,2.478 -2.896,4.487 -6.469,4.487l-36.098,0c-3.573,0 -6.47,-2.009 -6.47,-4.487l0,-25.564c0,-2.478 2.897,-4.486 6.47,-4.486l36.098,0c3.573,0 6.469,2.008 6.469,4.486l0,25.564Z" style="fill:#21dbaa;fill-rule:nonzero;"/><path d="M236.158,430.093c0,2.783 -3.253,5.04 -7.268,5.04l-40.554,0c-4.014,0 -7.269,-2.257 -7.269,-5.04l0,-28.721c0,-2.785 3.255,-5.041 7.269,-5.041l40.554,0c4.015,0 7.268,2.256 7.268,5.041l0,28.721Z" style="fill:#42edc0;fill-rule:nonzero;"/><rect x="159.694" y="202.732" width="18.686" height="21.642" style="fill-rule:nonzero;"/><rect x="162.657" y="206.162" width="12.763" height="14.783" style="fill:#535353;fill-rule:nonzero;"/><rect x="238.844" y="202.732" width="18.685" height="21.642" style="fill-rule:nonzero;"/><rect x="241.804" y="206.162" width="12.764" height="14.783" style="fill:#535353;fill-rule:nonzero;"/><rect x="204.397" y="438.704" width="8.431" height="13.018" style="fill-rule:nonzero;"/><rect x="201.954" y="427.164" width="13.319" height="15.428" style="fill-rule:nonzero;"/><rect x="204.064" y="429.61" width="9.097" height="10.539" style="fill:#535353;fill-rule:nonzero;"/><rect x="154.755" y="247.214" width="10.304" height="244.108" style="fill-rule:nonzero;"/><rect x="252.169" y="247.214" width="10.302" height="244.108" style="fill-rule:nonzero;"/><rect x="150.864" y="338.592" width="22.059" height="25.55" style="fill-rule:nonzero;"/><rect x="154.358" y="342.64" width="15.069" height="17.454" style="fill:#535353;fill-rule:nonzero;"/><rect x="244.302" y="338.592" width="22.059" height="25.55" style="fill-rule:nonzero;"/><rect x="247.796" y="342.64" width="15.068" height="17.454" style="fill:#535353;fill-rule:nonzero;"/></svg>