<?xml version="1.0" encoding="UTF-8" standalone="no"?><!DOCTYPE svg PUBLIC "-//W3C//DTD SVG 1.1//EN" "http://www.w3.org/Graphics/SVG/1.1/DTD/svg11.dtd"><svg width="100%" height="100%" viewBox="0 0 2500 350" version="1.1" xmlns="http://www.w3.org/2000/svg" xmlns:xlink="http://www.w3.org/1999/xlink" xml:space="preserve" style="fill-rule:evenodd;clip-rule:evenodd;stroke-linejoin:round;stroke-miterlimit:1.41421;"><path d="M-38.851,-48.197c-192.03,26.219 -25.865,342.038 7.546,398.423c26.384,44.527 136.526,-60.411 192.919,-60.113c56.393,0.298 94.139,60.558 145.439,61.9c51.299,1.342 116.632,-52.832 162.359,-53.848c44.078,-0.978 67.9,47.746 112.002,47.755c50.745,0.011 137.003,-47.034 192.47,-47.689c51.477,-0.609 88.842,43.65 140.327,43.756c58.543,0.121 144.327,-43.654 210.932,-43.031c66.605,0.623 125.497,45.98 188.699,46.769c63.202,0.789 135.58,-41.251 190.515,-42.034c49.853,-0.711 89.766,38.373 139.092,37.334c49.326,-1.038 105.607,-43.4 156.864,-43.564c51.258,-0.164 96.3,43.886 150.68,42.582c56.015,-1.344 130.769,-51.798 185.408,-50.643c54.64,1.155 95.136,57.543 142.427,57.574c47.291,0.03 103.583,-56.299 141.318,-57.391c37.736,-1.092 76.686,75.83 85.095,50.839c16.11,-47.878 173.761,-313.33 11.566,-338.106c-424.016,-64.77 -2130.97,-108.498 -2555.66,-50.513Z" style="fill:#fff5d3;"/></svg>