<?xml version="1.0" encoding="UTF-8" standalone="no"?><!DOCTYPE svg PUBLIC "-//W3C//DTD SVG 1.1//EN" "http://www.w3.org/Graphics/SVG/1.1/DTD/svg11.dtd"><svg width="100%" height="100%" viewBox="0 0 1024 768" version="1.1" xmlns="http://www.w3.org/2000/svg" xmlns:xlink="http://www.w3.org/1999/xlink" xml:space="preserve" style="fill-rule:evenodd;clip-rule:evenodd;stroke-linejoin:round;stroke-miterlimit:1.41421;"><rect id="Plan-de-travail1" x="0" y="0" width="1024" height="768" style="fill:none;"/><clipPath id="_clip1"><rect id="Plan-de-travail11" x="0" y="0" width="1024" height="768"/></clipPath><g clip-path="url(#_clip1)"><path d="M848.723,247.756c0,-7.209 7.806,-13.056 17.438,-13.056l0,-11.716c-9.632,0 -17.438,-5.844 -17.438,-13.053c0,-7.209 7.806,-13.053 17.438,-13.053l0,-28.574l-38.17,0c0,7.214 -7.798,13.052 -17.438,13.052c-9.625,0 -17.423,-5.838 -17.427,-13.052l-15.653,0c-0.004,7.214 -7.806,13.052 -17.438,13.052c-9.629,0 -17.427,-5.838 -17.431,-13.052l-15.656,0c-0.004,7.214 -7.802,13.052 -17.438,13.052c-9.633,0 -17.427,-5.838 -17.431,-13.052l-15.657,0c-0.003,7.214 -7.802,13.052 -17.434,13.052c-9.629,0 -17.431,-5.838 -17.434,-13.052l-15.87,0c-0.004,7.214 -7.81,13.052 -17.438,13.052c-9.629,0 -17.438,-5.838 -17.442,-13.052l-15.645,0c-0.004,7.214 -7.81,13.052 -17.439,13.052c-9.624,0 -17.43,-5.838 -17.434,-13.052l-15.649,0c-0.004,7.214 -7.81,13.052 -17.442,13.052c-9.625,0 -17.434,-5.838 -17.438,-13.052l-15.645,0c-0.004,7.214 -7.81,13.052 -17.439,13.052c-9.624,0 -17.43,-5.838 -17.438,-13.052l-15.645,0c-0.004,7.214 -7.81,13.052 -17.438,13.052c-9.625,0 -17.435,-5.838 -17.442,-13.052l-15.645,0c-0.004,7.214 -7.81,13.052 -17.438,13.052c-9.629,0 -17.439,-5.838 -17.439,-13.052l-15.649,0c0,7.214 -7.809,13.052 -17.434,13.052c-9.629,0 -17.438,-5.838 -17.438,-13.052l-15.649,0c0,7.214 -7.81,13.052 -17.438,13.052c-9.625,0 -17.435,-5.838 -17.439,-13.052l-38.166,0l0,28.597c9.501,0.109 17.165,5.886 17.165,13.03c0,7.145 -7.664,12.922 -17.165,13.031l0,11.763c9.501,0.115 17.165,5.889 17.165,13.031c0,7.144 -7.664,12.924 -17.165,13.033l0,11.764c9.501,0.109 17.165,5.892 17.165,13.03c0,7.139 -7.664,12.927 -17.165,13.037l0,11.752c9.501,0.115 17.165,5.897 17.165,13.036c0,7.145 -7.664,12.927 -17.165,13.031l0,11.763c9.501,0.11 17.165,5.889 17.165,13.031c0,7.144 -7.664,12.924 -17.165,13.039l0,11.758c9.501,0.109 17.165,5.892 17.165,13.03c0,7.145 -7.664,12.922 -17.165,13.037l0,11.758c9.501,0.109 17.165,5.891 17.165,13.03c0,7.145 -7.664,12.927 -17.165,13.031l0,11.763c9.501,0.11 17.165,5.889 17.165,13.034c0,7.141 -7.664,12.921 -17.165,13.036l0,11.92c9.501,0.115 17.165,5.895 17.165,13.036c0,7.145 -7.664,12.922 -17.165,13.034l0,11.763c9.501,0.104 17.165,5.886 17.165,13.025c0,7.142 -7.664,12.927 -17.165,13.042l0,11.753c9.501,0.114 17.165,5.897 17.165,13.036c0,7.138 -7.664,12.921 -17.165,13.03l0,11.758c9.501,0.115 17.165,5.895 17.165,13.036c0,7.139 -7.664,12.925 -17.165,13.034l0,28.6l38.166,0l0,-0.006c0,-7.203 7.81,-13.047 17.439,-13.047c9.628,0 17.438,5.844 17.438,13.047l0,0.006l15.649,0l0,-0.006c0,-7.203 7.806,-13.047 17.438,-13.047c9.628,0 17.434,5.844 17.434,13.047l0,0.006l15.649,0l0,-0.006c0,-7.203 7.81,-13.047 17.439,-13.047c9.628,0 17.438,5.844 17.438,13.047l0,0.006l15.645,0l0,-0.006c0,-7.203 7.817,-13.047 17.442,-13.047c9.628,0 17.438,5.844 17.438,13.047l0,0.006l15.645,0l0,-0.006c0,-7.203 7.814,-13.047 17.438,-13.047c9.629,0 17.439,5.844 17.439,13.047l0,0.006l15.645,0l0,-0.006c0,-7.203 7.813,-13.047 17.438,-13.047c9.632,0 17.442,5.844 17.442,13.047l0,0.006l15.649,0l0,-0.006c0,-7.203 7.81,-13.047 17.434,-13.047c9.629,0 17.439,5.844 17.439,13.047l0,0.006l15.645,0l0,-0.006c0,-7.203 7.813,-13.047 17.442,-13.047c9.628,0 17.438,5.844 17.438,13.047l0,0.006l15.87,0l0,-0.006c0,-7.203 7.805,-13.047 17.434,-13.047c9.632,0 17.434,5.844 17.434,13.047l0,0.006l15.657,0l0,-0.006c0,-7.203 7.798,-13.047 17.431,-13.047c9.636,0 17.438,5.844 17.438,13.047l0,0.006l15.656,0l0,-0.006c0,-7.203 7.802,-13.047 17.431,-13.047c9.632,0 17.438,5.844 17.438,13.047l0,0.006l15.653,0l0,-0.006c0,-7.203 7.802,-13.047 17.427,-13.047c9.64,0 17.438,5.844 17.438,13.047l0,0.006l38.17,0l0,-28.575c-9.632,0 -17.438,-5.847 -17.438,-13.059c0,-7.214 7.806,-13.053 17.438,-13.053l0,-11.719c-9.632,0 -17.438,-5.844 -17.438,-13.052c0,-7.209 7.806,-13.059 17.438,-13.059l0,-11.713c-9.632,0 -17.438,-5.839 -17.438,-13.059c0,-7.203 7.806,-13.053 17.438,-13.053l0,-11.716c-9.632,0 -17.438,-5.841 -17.438,-13.053c0,-7.208 7.806,-13.053 17.438,-13.053l0,-11.884c-9.632,0 -17.438,-5.846 -17.438,-13.055c0,-7.212 7.806,-13.053 17.438,-13.053l0,-11.716c-9.632,0 -17.438,-5.85 -17.438,-13.059c0,-7.203 7.806,-13.053 17.438,-13.053l0,-11.713c-9.632,0 -17.438,-5.844 -17.438,-13.059c0,-7.208 7.806,-13.052 17.438,-13.052l0,-11.722c-9.632,0 -17.438,-5.836 -17.438,-13.053c0,-7.209 7.806,-13.047 17.438,-13.047l0,-11.719c-9.632,0 -17.438,-5.85 -17.438,-13.059c0,-7.208 7.806,-13.053 17.438,-13.053l0,-11.719c-9.632,0 -17.438,-5.844 -17.438,-13.053c0,-7.208 7.806,-13.052 17.438,-13.052l0,-11.722c-9.632,0 -17.438,-5.842 -17.438,-13.053Z" style="fill:#d1cecc;fill-rule:nonzero;"/><path d="M843.163,257.719c0,-7.208 7.805,-13.055 17.438,-13.055l0,-11.717c-9.633,0 -17.438,-5.844 -17.438,-13.052c0,-7.209 7.805,-13.053 17.438,-13.053l0,-28.575l-38.171,0c0,7.214 -7.798,13.053 -17.438,13.053c-9.625,0 -17.423,-5.839 -17.427,-13.053l-15.653,0c-0.003,7.214 -7.806,13.053 -17.438,13.053c-9.628,0 -17.427,-5.839 -17.43,-13.053l-15.657,0c-0.004,7.214 -7.802,13.053 -17.438,13.053c-9.632,0 -17.427,-5.839 -17.431,-13.053l-15.656,0c-0.004,7.214 -7.803,13.053 -17.435,13.053c-9.628,0 -17.43,-5.839 -17.434,-13.053l-15.87,0c-0.003,7.214 -7.809,13.053 -17.438,13.053c-9.628,0 -17.438,-5.839 -17.442,-13.053l-15.645,0c-0.004,7.214 -7.81,13.053 -17.438,13.053c-9.625,0 -17.431,-5.839 -17.435,-13.053l-15.649,0c-0.003,7.214 -7.809,13.053 -17.442,13.053c-9.624,0 -17.434,-5.839 -17.438,-13.053l-15.645,0c-0.004,7.214 -7.81,13.053 -17.438,13.053c-9.625,0 -17.431,-5.839 -17.438,-13.053l-15.646,0c-0.004,7.214 -7.809,13.053 -17.438,13.053c-9.625,0 -17.434,-5.839 -17.442,-13.053l-15.645,0c-0.004,7.214 -7.81,13.053 -17.438,13.053c-9.629,0 -17.438,-5.839 -17.438,-13.053l-15.65,0c0,7.214 -7.809,13.053 -17.434,13.053c-9.628,0 -17.438,-5.839 -17.438,-13.053l-15.649,0c0,7.214 -7.81,13.053 -17.438,13.053c-9.625,0 -17.435,-5.839 -17.438,-13.053l-38.167,0l0,28.597c9.501,0.109 17.165,5.886 17.165,13.031c0,7.144 -7.664,12.921 -17.165,13.03l0,11.764c9.501,0.115 17.165,5.889 17.165,13.03c0,7.145 -7.664,12.925 -17.165,13.034l0,11.763c9.501,0.109 17.165,5.892 17.165,13.031c0,7.139 -7.664,12.927 -17.165,13.036l0,11.753c9.501,0.114 17.165,5.897 17.165,13.036c0,7.144 -7.664,12.927 -17.165,13.03l0,11.764c9.501,0.109 17.165,5.889 17.165,13.03c0,7.145 -7.664,12.925 -17.165,13.039l0,11.759c9.501,0.109 17.165,5.891 17.165,13.03c0,7.144 -7.664,12.921 -17.165,13.036l0,11.758c9.501,0.109 17.165,5.892 17.165,13.031c0,7.144 -7.664,12.927 -17.165,13.03l0,11.764c9.501,0.109 17.165,5.889 17.165,13.033c0,7.142 -7.664,12.922 -17.165,13.036l0,11.921c9.501,0.114 17.165,5.894 17.165,13.036c0,7.144 -7.664,12.921 -17.165,13.033l0,11.764c9.501,0.103 17.165,5.886 17.165,13.025c0,7.141 -7.664,12.927 -17.165,13.041l0,11.753c9.501,0.115 17.165,5.897 17.165,13.036c0,7.139 -7.664,12.921 -17.165,13.031l0,11.758c9.501,0.114 17.165,5.894 17.165,13.036c0,7.139 -7.664,12.924 -17.165,13.033l0,28.6l38.167,0l0,-0.006c0,-7.203 7.809,-13.047 17.438,-13.047c9.628,0 17.438,5.844 17.438,13.047l0,0.006l15.649,0l0,-0.006c0,-7.203 7.806,-13.047 17.438,-13.047c9.629,0 17.434,5.844 17.434,13.047l0,0.006l15.65,0l0,-0.006c0,-7.203 7.809,-13.047 17.438,-13.047c9.628,0 17.438,5.844 17.438,13.047l0,0.006l15.645,0l0,-0.006c0,-7.203 7.817,-13.047 17.442,-13.047c9.629,0 17.438,5.844 17.438,13.047l0,0.006l15.646,0l0,-0.006c0,-7.203 7.813,-13.047 17.438,-13.047c9.628,0 17.438,5.844 17.438,13.047l0,0.006l15.645,0l0,-0.006c0,-7.203 7.814,-13.047 17.438,-13.047c9.633,0 17.442,5.844 17.442,13.047l0,0.006l15.649,0l0,-0.006c0,-7.203 7.81,-13.047 17.435,-13.047c9.628,0 17.438,5.844 17.438,13.047l0,0.006l15.645,0l0,-0.006c0,-7.203 7.814,-13.047 17.442,-13.047c9.629,0 17.438,5.844 17.438,13.047l0,0.006l15.87,0l0,-0.006c0,-7.203 7.806,-13.047 17.434,-13.047c9.632,0 17.435,5.844 17.435,13.047l0,0.006l15.656,0l0,-0.006c0,-7.203 7.799,-13.047 17.431,-13.047c9.636,0 17.438,5.844 17.438,13.047l0,0.006l15.657,0l0,-0.006c0,-7.203 7.802,-13.047 17.43,-13.047c9.632,0 17.438,5.844 17.438,13.047l0,0.006l15.653,0l0,-0.006c0,-7.203 7.802,-13.047 17.427,-13.047c9.64,0 17.438,5.844 17.438,13.047l0,0.006l38.171,0l0,-28.575c-9.633,0 -17.438,-5.847 -17.438,-13.058c0,-7.214 7.805,-13.053 17.438,-13.053l0,-11.719c-9.633,0 -17.438,-5.844 -17.438,-13.053c0,-7.209 7.805,-13.058 17.438,-13.058l0,-11.714c-9.633,0 -17.438,-5.838 -17.438,-13.058c0,-7.203 7.805,-13.053 17.438,-13.053l0,-11.716c-9.633,0 -17.438,-5.842 -17.438,-13.053c0,-7.209 7.805,-13.053 17.438,-13.053l0,-11.884c-9.633,0 -17.438,-5.847 -17.438,-13.056c0,-7.211 7.805,-13.053 17.438,-13.053l0,-11.716c-9.633,0 -17.438,-5.85 -17.438,-13.058c0,-7.203 7.805,-13.053 17.438,-13.053l0,-11.714c-9.633,0 -17.438,-5.844 -17.438,-13.058c0,-7.209 7.805,-13.053 17.438,-13.053l0,-11.722c-9.633,0 -17.438,-5.835 -17.438,-13.053c0,-7.208 7.805,-13.047 17.438,-13.047l0,-11.719c-9.633,0 -17.438,-5.85 -17.438,-13.058c0,-7.209 7.805,-13.053 17.438,-13.053l0,-11.719c-9.633,0 -17.438,-5.844 -17.438,-13.053c0,-7.209 7.805,-13.053 17.438,-13.053l0,-11.722c-9.633,0 -17.438,-5.841 -17.438,-13.053Z" style="fill:#d1cecc;fill-rule:nonzero;"/><path d="M844.082,251.445c0,-7.225 7.752,-13.086 17.317,-13.086l0,-11.743c-9.565,0 -17.317,-5.858 -17.317,-13.083c0,-7.226 7.752,-13.084 17.317,-13.084l0,-28.641l-37.905,0c0,7.231 -7.744,13.083 -17.317,13.083c-9.558,0 -17.302,-5.852 -17.306,-13.083l-15.544,0c-0.004,7.231 -7.752,13.083 -17.317,13.083c-9.562,0 -17.306,-5.852 -17.31,-13.083l-15.548,0c-0.003,7.231 -7.748,13.083 -17.317,13.083c-9.565,0 -17.306,-5.852 -17.31,-13.083l-15.547,0c-0.004,7.231 -7.748,13.083 -17.314,13.083c-9.561,0 -17.309,-5.852 -17.313,-13.083l-15.759,0c-0.004,7.231 -7.756,13.083 -17.317,13.083c-9.562,0 -17.318,-5.852 -17.321,-13.083l-15.537,0c-0.004,7.231 -7.755,13.083 -17.317,13.083c-9.558,0 -17.31,-5.852 -17.313,-13.083l-15.541,0c-0.004,7.231 -7.755,13.083 -17.321,13.083c-9.558,0 -17.313,-5.852 -17.317,-13.083l-15.536,0c-0.004,7.231 -7.756,13.083 -17.318,13.083c-9.557,0 -17.309,-5.852 -17.317,-13.083l-15.536,0c-0.004,7.231 -7.756,13.083 -17.317,13.083c-9.558,0 -17.314,-5.852 -17.321,-13.083l-15.537,0c-0.004,7.231 -7.755,13.083 -17.317,13.083c-9.562,0 -17.317,-5.852 -17.317,-13.083l-15.541,0c0,7.231 -7.755,13.083 -17.313,13.083c-9.562,0 -17.317,-5.852 -17.317,-13.083l-15.54,0c0,7.231 -7.756,13.083 -17.317,13.083c-9.558,0 -17.314,-5.852 -17.318,-13.083l-37.901,0l0,28.664c9.435,0.109 17.046,5.9 17.046,13.061c0,7.16 -7.611,12.951 -17.046,13.06l0,11.791c9.435,0.115 17.046,5.903 17.046,13.061c0,7.161 -7.611,12.954 -17.046,13.063l0,11.792c9.435,0.109 17.046,5.905 17.046,13.06c0,7.156 -7.611,12.957 -17.046,13.066l0,11.78c9.435,0.115 17.046,5.911 17.046,13.067c0,7.161 -7.611,12.957 -17.046,13.06l0,11.791c9.435,0.11 17.046,5.903 17.046,13.061c0,7.161 -7.611,12.954 -17.046,13.069l0,11.786c9.435,0.109 17.046,5.905 17.046,13.06c0,7.161 -7.611,12.952 -17.046,13.067l0,11.785c9.435,0.109 17.046,5.905 17.046,13.061c0,7.161 -7.611,12.957 -17.046,13.06l0,11.791c9.435,0.11 17.046,5.903 17.046,13.064c0,7.158 -7.611,12.951 -17.046,13.066l0,11.948c9.435,0.115 17.046,5.908 17.046,13.067c0,7.161 -7.611,12.951 -17.046,13.063l0,11.791c9.435,0.104 17.046,5.9 17.046,13.055c0,7.158 -7.611,12.957 -17.046,13.072l0,11.78c9.435,0.115 17.046,5.911 17.046,13.066c0,7.156 -7.611,12.952 -17.046,13.061l0,11.785c9.435,0.115 17.046,5.909 17.046,13.067c0,7.155 -7.611,12.954 -17.046,13.063l0,28.666l37.901,0l0,-0.005c0,-7.22 7.756,-13.078 17.318,-13.078c9.561,0 17.317,5.858 17.317,13.078l0,0.005l15.54,0l0,-0.005c0,-7.22 7.752,-13.078 17.317,-13.078c9.562,0 17.313,5.858 17.313,13.078l0,0.005l15.541,0l0,-0.005c0,-7.22 7.755,-13.078 17.317,-13.078c9.562,0 17.317,5.858 17.317,13.078l0,0.005l15.537,0l0,-0.005c0,-7.22 7.763,-13.078 17.321,-13.078c9.561,0 17.317,5.858 17.317,13.078l0,0.005l15.536,0l0,-0.005c0,-7.22 7.76,-13.078 17.317,-13.078c9.562,0 17.318,5.858 17.318,13.078l0,0.005l15.536,0l0,-0.005c0,-7.22 7.759,-13.078 17.317,-13.078c9.566,0 17.321,5.858 17.321,13.078l0,0.005l15.541,0l0,-0.005c0,-7.22 7.755,-13.078 17.313,-13.078c9.562,0 17.317,5.858 17.317,13.078l0,0.005l15.537,0l0,-0.005c0,-7.22 7.759,-13.078 17.321,-13.078c9.561,0 17.317,5.858 17.317,13.078l0,0.005l15.759,0l0,-0.005c0,-7.22 7.752,-13.078 17.313,-13.078c9.566,0 17.314,5.858 17.314,13.078l0,0.005l15.547,0l0,-0.005c0,-7.22 7.745,-13.078 17.31,-13.078c9.569,0 17.317,5.858 17.317,13.078l0,0.005l15.548,0l0,-0.005c0,-7.22 7.748,-13.078 17.31,-13.078c9.565,0 17.317,5.858 17.317,13.078l0,0.005l15.544,0l0,-0.005c0,-7.22 7.748,-13.078 17.306,-13.078c9.573,0 17.317,5.858 17.317,13.078l0,0.005l37.905,0l0,-28.641c-9.565,0 -17.317,-5.86 -17.317,-13.088c0,-7.231 7.752,-13.083 17.317,-13.083l0,-11.747c-9.565,0 -17.317,-5.857 -17.317,-13.083c0,-7.225 7.752,-13.088 17.317,-13.088l0,-11.741c-9.565,0 -17.317,-5.852 -17.317,-13.089c0,-7.22 7.752,-13.083 17.317,-13.083l0,-11.743c-9.565,0 -17.317,-5.855 -17.317,-13.083c0,-7.226 7.752,-13.084 17.317,-13.084l0,-11.911c-9.565,0 -17.317,-5.861 -17.317,-13.086c0,-7.228 7.752,-13.083 17.317,-13.083l0,-11.744c-9.565,0 -17.317,-5.863 -17.317,-13.088c0,-7.22 7.752,-13.083 17.317,-13.083l0,-11.741c-9.565,0 -17.317,-5.858 -17.317,-13.089c0,-7.225 7.752,-13.083 17.317,-13.083l0,-11.749c-9.565,0 -17.317,-5.849 -17.317,-13.083c0,-7.225 7.752,-13.077 17.317,-13.077l0,-11.747c-9.565,0 -17.317,-5.863 -17.317,-13.088c0,-7.226 7.752,-13.083 17.317,-13.083l0,-11.747c-9.565,0 -17.317,-5.857 -17.317,-13.083c0,-7.225 7.752,-13.083 17.317,-13.083l0,-11.749c-9.565,0 -17.317,-5.855 -17.317,-13.083Z" style="fill:#fff;fill-rule:nonzero;stroke:#000;stroke-width:0.25px;"/></g></svg>