<?xml version="1.0" encoding="UTF-8" standalone="no"?>
<!DOCTYPE svg PUBLIC "-//W3C//DTD SVG 1.1//EN" "http://www.w3.org/Graphics/SVG/1.1/DTD/svg11.dtd">
<svg width="100%" height="100%" viewBox="0 0 500 500" version="1.1" xmlns="http://www.w3.org/2000/svg" xmlns:xlink="http://www.w3.org/1999/xlink" xml:space="preserve" style="fill-rule:evenodd;clip-rule:evenodd;stroke-linejoin:round;stroke-miterlimit:1.41421;">
    <g id="OBJECTS">
        <g transform="matrix(1.08232,0,0,1.06667,-78.4164,-121.418)">
            <rect x="49.8" y="85.1" width="500" height="500" style="fill:rgb(21,131,175);"/>
        </g>
        <g transform="matrix(1.22933,0,0,0.487426,-94.6902,185.842)">
            <path d="M105.352,193.519C105.336,193.196 105.858,192.863 105.266,192.537C104.981,192.379 104.705,191.036 104.708,190.478C104.764,190.37 104.836,190.273 104.922,190.186C105.042,190.03 105.132,189.855 105.235,189.686C105.423,188.801 105.859,188.12 106.797,187.931C107.477,187.795 108.068,187.872 107.956,188.815C107.831,189.123 107.751,189.433 107.944,189.748C108.053,189.999 108.127,190.258 108.192,190.521C108.243,190.721 108.344,190.9 108.44,191.081C108.575,191.333 108.777,191.547 108.875,191.823C108.94,192.143 108.846,192.427 108.681,192.697C108.498,192.96 108.248,193.141 107.962,193.279C107.557,193.498 107.15,193.713 106.705,193.848C106.272,194.077 105.789,194.237 105.648,194.805C105.528,195.293 105.156,195.508 104.682,195.576C104.622,195.525 104.561,195.474 104.5,195.424C104.423,195.287 104.376,195.138 104.358,194.981C104.364,194.273 104.832,193.878 105.352,193.519" style="fill:rgb(251,255,255);"/>
        </g>
        <g transform="matrix(0.993444,0,0,0.835083,-64.9077,113.477)">
            <path d="M118.624,183.249C118.961,183.049 119.297,182.848 119.633,182.647C120.545,182.873 119.557,183.629 120.015,183.978C120.436,184.351 120.889,184.702 120.861,185.348C121.202,186.064 121.038,186.643 120.389,187.09C119.655,188.546 118.048,188.163 116.902,188.754C116.793,188.894 116.65,189.009 116.477,188.93C116.101,188.761 116.021,188.12 115.402,188.304C114.905,188.451 114.442,188.61 114.082,189.009C113.935,189.171 113.722,189.273 113.539,189.402C113.524,189.185 113.51,188.966 113.494,188.748L113.502,188.756C113.141,188.502 113.021,188.087 112.816,187.728L112.817,187.728C113.188,187.754 113.561,187.779 114.017,187.81C113.936,187.27 113.257,187.404 113.157,186.983C113.28,186.724 113.485,186.546 113.73,186.404C113.98,186.242 114.125,186.008 114.197,185.727C114.221,185.591 114.259,185.458 114.3,185.326C114.359,185.131 114.441,184.944 114.534,184.762C114.701,184.468 114.859,184.162 115.21,184.04C115.776,183.553 116.632,183.775 117.178,183.239C117.661,183.092 118.143,183.126 118.624,183.249" style="fill:rgb(236,252,249);"/>
        </g>
        <g transform="matrix(0.993444,0,0,0.835083,-10.846,79.6719)">
            <path d="M105.352,193.519C105.336,193.196 105.858,192.863 105.266,192.537C104.981,192.379 104.705,191.036 104.708,190.478C104.764,190.37 104.836,190.273 104.922,190.186C105.042,190.03 105.132,189.855 105.235,189.686C105.423,188.801 105.859,188.12 106.797,187.931C107.477,187.795 108.068,187.872 107.956,188.815C107.831,189.123 107.751,189.433 107.944,189.748C108.053,189.999 108.127,190.258 108.192,190.521C108.243,190.721 108.344,190.9 108.44,191.081C108.575,191.333 108.777,191.547 108.875,191.823C108.94,192.143 108.846,192.427 108.681,192.697C108.498,192.96 108.248,193.141 107.962,193.279C107.557,193.498 107.15,193.713 106.705,193.848C106.272,194.077 105.789,194.237 105.648,194.805C105.528,195.293 105.156,195.508 104.682,195.576C104.622,195.525 104.561,195.474 104.5,195.424C104.423,195.287 104.376,195.138 104.358,194.981C104.364,194.273 104.832,193.878 105.352,193.519" style="fill:rgb(251,255,255);"/>
        </g>
        <g transform="matrix(0.993444,0,0,0.835083,-5.85085,78.9583)">
            <path d="M105.352,193.519C105.336,193.196 105.858,192.863 105.266,192.537C104.981,192.379 104.705,191.036 104.708,190.478C104.764,190.37 104.836,190.273 104.922,190.186C105.042,190.03 105.132,189.855 105.235,189.686C105.423,188.801 105.859,188.12 106.797,187.931C107.477,187.795 108.068,187.872 107.956,188.815C107.831,189.123 107.751,189.433 107.944,189.748C108.053,189.999 108.127,190.258 108.192,190.521C108.243,190.721 108.344,190.9 108.44,191.081C108.575,191.333 108.777,191.547 108.875,191.823C108.94,192.143 108.846,192.427 108.681,192.697C108.498,192.96 108.248,193.141 107.962,193.279C107.557,193.498 107.15,193.713 106.705,193.848C106.272,194.077 105.789,194.237 105.648,194.805C105.528,195.293 105.156,195.508 104.682,195.576C104.622,195.525 104.561,195.474 104.5,195.424C104.423,195.287 104.376,195.138 104.358,194.981C104.364,194.273 104.832,193.878 105.352,193.519" style="fill:rgb(251,255,255);"/>
        </g>
        <g transform="matrix(0.993444,0,0,0.835083,-15.4843,83.9534)">
            <path d="M105.352,193.519C105.336,193.196 105.858,192.863 105.266,192.537C104.981,192.379 104.705,191.036 104.708,190.478C104.764,190.37 104.836,190.273 104.922,190.186C105.042,190.03 105.132,189.855 105.235,189.686C105.423,188.801 105.859,188.12 106.797,187.931C107.477,187.795 108.068,187.872 107.956,188.815C107.831,189.123 107.751,189.433 107.944,189.748C108.053,189.999 108.127,190.258 108.192,190.521C108.243,190.721 108.344,190.9 108.44,191.081C108.575,191.333 108.777,191.547 108.875,191.823C108.94,192.143 108.846,192.427 108.681,192.697C108.498,192.96 108.248,193.141 107.962,193.279C107.557,193.498 107.15,193.713 106.705,193.848C106.272,194.077 105.789,194.237 105.648,194.805C105.528,195.293 105.156,195.508 104.682,195.576C104.622,195.525 104.561,195.474 104.5,195.424C104.423,195.287 104.376,195.138 104.358,194.981C104.364,194.273 104.832,193.878 105.352,193.519" style="fill:rgb(251,255,255);"/>
        </g>
        <g transform="matrix(0.993444,0,0,0.835083,-17.2683,85.3806)">
            <path d="M105.352,193.519C105.336,193.196 105.858,192.863 105.266,192.537C104.981,192.379 104.705,191.036 104.708,190.478C104.764,190.37 104.836,190.273 104.922,190.186C105.042,190.03 105.132,189.855 105.235,189.686C105.423,188.801 105.859,188.12 106.797,187.931C107.477,187.795 108.068,187.872 107.956,188.815C107.831,189.123 107.751,189.433 107.944,189.748C108.053,189.999 108.127,190.258 108.192,190.521C108.243,190.721 108.344,190.9 108.44,191.081C108.575,191.333 108.777,191.547 108.875,191.823C108.94,192.143 108.846,192.427 108.681,192.697C108.498,192.96 108.248,193.141 107.962,193.279C107.557,193.498 107.15,193.713 106.705,193.848C106.272,194.077 105.789,194.237 105.648,194.805C105.528,195.293 105.156,195.508 104.682,195.576C104.622,195.525 104.561,195.474 104.5,195.424C104.423,195.287 104.376,195.138 104.358,194.981C104.364,194.273 104.832,193.878 105.352,193.519" style="fill:rgb(251,255,255);"/>
        </g>
        <g transform="matrix(0.993444,0,0,0.835083,-62.4028,114.281)">
            <path d="M105.352,193.519C105.336,193.196 105.858,192.863 105.266,192.537C104.981,192.379 104.705,191.036 104.708,190.478C104.764,190.37 104.836,190.273 104.922,190.186C105.042,190.03 105.132,189.855 105.235,189.686C105.423,188.801 105.859,188.12 106.797,187.931C107.477,187.795 108.068,187.872 107.956,188.815C107.831,189.123 107.751,189.433 107.944,189.748C108.053,189.999 108.127,190.258 108.192,190.521C108.243,190.721 108.344,190.9 108.44,191.081C108.575,191.333 108.777,191.547 108.875,191.823C108.94,192.143 108.846,192.427 108.681,192.697C108.498,192.96 108.248,193.141 107.962,193.279C107.557,193.498 107.15,193.713 106.705,193.848C106.272,194.077 105.789,194.237 105.648,194.805C105.528,195.293 105.156,195.508 104.682,195.576C104.622,195.525 104.561,195.474 104.5,195.424C104.423,195.287 104.376,195.138 104.358,194.981C104.364,194.273 104.832,193.878 105.352,193.519" style="fill:rgb(251,255,255);"/>
        </g>
        <g transform="matrix(0.993444,0,0,0.998905,114.715,-23.6683)">
            <path d="M40.381,231.917C40.988,232.057 40.875,231.096 41.464,231.207C41.83,230.771 42.097,230.197 42.809,230.243C43.762,229.617 43.994,230.368 44.282,231.013C44.323,231.153 44.331,231.299 44.315,231.442C44.01,231.785 44.382,231.963 44.511,232.203C44.615,232.411 44.658,232.626 44.611,232.855C44.061,233.462 44.069,234.25 43.92,234.984C43.85,235.269 43.726,235.521 43.479,235.696C43.213,235.701 43.096,235.859 43.062,236.106C42.774,236.371 42.428,236.424 42.058,236.393C41.308,236.384 41.045,235.026 40.057,235.672C39.632,235.645 39.402,235.423 39.375,234.995C39.113,234.69 38.604,235.059 38.388,234.631C38.373,234.524 38.365,234.416 38.362,234.308C38.475,234.194 38.587,234.081 38.7,233.968C38.592,233.894 38.556,233.818 38.591,233.742C38.627,233.667 38.663,233.629 38.699,233.629C38.925,233.401 39.152,233.173 39.378,232.945C39.1,232.006 39.483,231.71 40.381,231.917" style="fill:rgb(235,251,249);"/>
        </g>
        <g transform="matrix(0.993444,0,0,0.835083,56.7666,47.9172)">
            <path d="M105.352,193.519C105.336,193.196 105.858,192.863 105.266,192.537C104.981,192.379 104.705,191.036 104.708,190.478C104.764,190.37 104.836,190.273 104.922,190.186C105.042,190.03 105.132,189.855 105.235,189.686C105.423,188.801 105.859,188.12 106.797,187.931C107.477,187.795 108.068,187.872 107.956,188.815C107.831,189.123 107.751,189.433 107.944,189.748C108.053,189.999 108.127,190.258 108.192,190.521C108.243,190.721 108.344,190.9 108.44,191.081C108.575,191.333 108.777,191.547 108.875,191.823C108.94,192.143 108.846,192.427 108.681,192.697C108.498,192.96 108.248,193.141 107.962,193.279C107.557,193.498 107.15,193.713 106.705,193.848C106.272,194.077 105.789,194.237 105.648,194.805C105.528,195.293 105.156,195.508 104.682,195.576C104.622,195.525 104.561,195.474 104.5,195.424C104.423,195.287 104.376,195.138 104.358,194.981C104.364,194.273 104.832,193.878 105.352,193.519" style="fill:rgb(251,255,255);"/>
        </g>
        <g transform="matrix(0.993444,0,0,0.835083,89.6996,30.4312)">
            <path d="M77.113,207.045C77.586,206.638 78.058,206.232 78.531,205.824C79.11,205.453 79.358,204.781 79.864,204.343C80.011,204.285 80.16,204.283 80.31,204.325C80.894,204.827 81.653,204.233 82.255,204.634C82.59,205.049 82.49,205.518 82.428,205.983C82.215,206.566 81.986,207.127 81.27,207.276C81.056,207.321 80.931,207.41 81.134,207.31C81.163,207.295 81.257,207.385 81.366,207.476C81.437,207.606 81.474,207.734 81.49,207.876C81.076,208.732 81.216,209.614 81.34,210.496C80.972,211.001 80.235,211.215 80.181,211.97C79.985,212.12 79.765,212.163 79.525,212.125C79.374,212.07 79.246,211.982 79.141,211.861C78.427,211.652 78.786,210.918 78.479,210.51C78.133,210.347 77.795,210.149 77.387,210.204C76.877,209.958 76.386,209.705 76.552,208.981C76.564,208.927 76.304,208.811 76.171,208.724C75.758,208.104 76.233,207.626 76.429,207.104C76.642,206.912 76.871,206.9 77.113,207.045" style="fill:rgb(228,251,248);"/>
        </g>
        <g transform="matrix(0.993444,0,0,0.835083,68.348,42.1398)">
            <path d="M105.352,193.519C105.336,193.196 105.858,192.863 105.266,192.537C104.981,192.379 104.705,191.036 104.708,190.478C104.764,190.37 104.836,190.273 104.922,190.186C105.042,190.03 105.132,189.855 105.235,189.686C105.423,188.801 105.859,188.12 106.797,187.931C107.477,187.795 108.068,187.872 107.956,188.815C107.831,189.123 107.751,189.433 107.944,189.748C108.053,189.999 108.127,190.258 108.192,190.521C108.243,190.721 108.344,190.9 108.44,191.081C108.575,191.333 108.777,191.547 108.875,191.823C108.94,192.143 108.846,192.427 108.681,192.697C108.498,192.96 108.248,193.141 107.962,193.279C107.557,193.498 107.15,193.713 106.705,193.848C106.272,194.077 105.789,194.237 105.648,194.805C105.528,195.293 105.156,195.508 104.682,195.576C104.622,195.525 104.561,195.474 104.5,195.424C104.423,195.287 104.376,195.138 104.358,194.981C104.364,194.273 104.832,193.878 105.352,193.519" style="fill:rgb(209,250,246);"/>
        </g>
        <g transform="matrix(0.993444,0,0,0.835083,64.7082,43.1482)">
            <path d="M118.624,183.249C118.961,183.049 119.297,182.848 119.633,182.647C120.545,182.873 119.557,183.629 120.015,183.978C120.436,184.351 120.889,184.702 120.861,185.348C121.202,186.064 121.038,186.643 120.389,187.09C119.655,188.546 118.048,188.163 116.902,188.754C116.793,188.894 116.65,189.009 116.477,188.93C116.101,188.761 116.021,188.12 115.402,188.304C114.905,188.451 114.442,188.61 114.082,189.009C113.935,189.171 113.722,189.273 113.539,189.402C113.524,189.185 113.51,188.966 113.494,188.748L113.502,188.756C113.141,188.502 113.021,188.087 112.816,187.728L112.817,187.728C113.188,187.754 113.561,187.779 114.017,187.81C113.936,187.27 113.257,187.404 113.157,186.983C113.28,186.724 113.485,186.546 113.73,186.404C113.98,186.242 114.125,186.008 114.197,185.727C114.221,185.591 114.259,185.458 114.3,185.326C114.359,185.131 114.441,184.944 114.534,184.762C114.701,184.468 114.859,184.162 115.21,184.04C115.776,183.553 116.632,183.775 117.178,183.239C117.661,183.092 118.143,183.126 118.624,183.249" style="fill:rgb(236,252,249);"/>
        </g>
        <g transform="matrix(0.993444,0,0,0.835083,72.9627,39.1571)">
            <path d="M118.624,183.249C118.961,183.049 119.297,182.848 119.633,182.647C120.545,182.873 119.557,183.629 120.015,183.978C120.436,184.351 120.889,184.702 120.861,185.348C121.202,186.064 121.038,186.643 120.389,187.09C119.655,188.546 118.048,188.163 116.902,188.754C116.793,188.894 116.65,189.009 116.477,188.93C116.101,188.761 116.021,188.12 115.402,188.304C114.905,188.451 114.442,188.61 114.082,189.009C113.935,189.171 113.722,189.273 113.539,189.402C113.524,189.185 113.51,188.966 113.494,188.748L113.502,188.756C113.141,188.502 113.021,188.087 112.816,187.728L112.817,187.728C113.188,187.754 113.561,187.779 114.017,187.81C113.936,187.27 113.257,187.404 113.157,186.983C113.28,186.724 113.485,186.546 113.73,186.404C113.98,186.242 114.125,186.008 114.197,185.727C114.221,185.591 114.259,185.458 114.3,185.326C114.359,185.131 114.441,184.944 114.534,184.762C114.701,184.468 114.859,184.162 115.21,184.04C115.776,183.553 116.632,183.775 117.178,183.239C117.661,183.092 118.143,183.126 118.624,183.249" style="fill:rgb(236,252,249);"/>
        </g>
        <g transform="matrix(0.993444,0,0,0.835083,73.1863,38.0866)">
            <path d="M125.069,178.228C125.39,178.135 125.141,177.439 125.717,177.619C126.52,176.985 127.6,176.967 128.428,176.393C128.566,176.332 128.711,176.288 128.855,176.25C129.414,176.131 129.928,175.682 130.551,176.011C131.037,176.605 131.498,177.206 131.123,178.04C131.062,178.177 130.99,178.315 131.058,178.473C131.03,178.303 131.107,178.191 131.255,178.117C131.494,178.132 131.644,178.27 131.747,178.473C131.793,178.615 131.814,178.759 131.809,178.908C131.767,179.435 131.363,179.832 131.293,180.35C131.242,180.572 131.156,180.78 131.042,180.977C130.962,181.109 130.865,181.227 130.758,181.338C130.264,181.826 129.812,182.422 128.977,182.059C128.855,181.995 128.742,181.911 128.642,181.814C128.528,181.693 128.444,181.546 128.377,181.403C128.376,181.416 128.261,181.394 128.261,181.394C128.261,181.394 128.239,181.508 128.234,181.524C127.531,182.041 127.04,182.749 127.05,183.362C127.053,183.54 127.392,183.429 127.517,183.588C127.665,183.791 127.7,184.015 127.667,184.256C127.626,184.414 127.559,184.559 127.47,184.694C127.42,184.756 127.366,184.817 127.315,184.879C126.959,185.219 126.535,185.427 126.048,185.512C125.288,185.421 124.094,186.258 124.051,184.599C124.113,184.551 124.144,184.525 124.144,184.525C124.173,184.49 124.128,184.488 124.007,184.519C123.209,184.36 122.488,184.087 122.127,183.274C122.118,183.127 122.14,182.984 122.186,182.845C122.394,182.416 122.775,182.066 122.778,181.543C122.812,181.413 122.873,181.293 122.952,181.184C123.082,181.055 123.232,180.942 123.358,180.807C123.417,180.71 123.484,180.617 123.547,180.522C123.606,180.432 123.68,180.347 123.72,180.248C123.741,180.198 123.671,180.157 123.592,180.152C123.561,180.032 123.559,179.915 123.583,179.793C123.631,179.599 123.708,179.418 123.797,179.241C123.994,178.617 124.517,178.404 125.069,178.228" style="fill:rgb(235,251,249);"/>
        </g>
        <g transform="matrix(0.993444,0,0,0.998905,63.9027,1.05737)">
            <path d="M40.381,231.917C40.988,232.057 40.875,231.096 41.464,231.207C41.83,230.771 42.097,230.197 42.809,230.243C43.762,229.617 43.994,230.368 44.282,231.013C44.323,231.153 44.331,231.299 44.315,231.442C44.01,231.785 44.382,231.963 44.511,232.203C44.615,232.411 44.658,232.626 44.611,232.855C44.061,233.462 44.069,234.25 43.92,234.984C43.85,235.269 43.726,235.521 43.479,235.696C43.213,235.701 43.096,235.859 43.062,236.106C42.774,236.371 42.428,236.424 42.058,236.393C41.308,236.384 41.045,235.026 40.057,235.672C39.632,235.645 39.402,235.423 39.375,234.995C39.113,234.69 38.604,235.059 38.388,234.631C38.373,234.524 38.365,234.416 38.362,234.308C38.475,234.194 38.587,234.081 38.7,233.968C38.592,233.894 38.556,233.818 38.591,233.742C38.627,233.667 38.663,233.629 38.699,233.629C38.925,233.401 39.152,233.173 39.378,232.945C39.1,232.006 39.483,231.71 40.381,231.917" style="fill:rgb(235,251,249);"/>
        </g>
        <g transform="matrix(0.993444,0,0,0.835083,5.95405,72.6428)">
            <path d="M105.352,193.519C105.336,193.196 105.858,192.863 105.266,192.537C104.981,192.379 104.705,191.036 104.708,190.478C104.764,190.37 104.836,190.273 104.922,190.186C105.042,190.03 105.132,189.855 105.235,189.686C105.423,188.801 105.859,188.12 106.797,187.931C107.477,187.795 108.068,187.872 107.956,188.815C107.831,189.123 107.751,189.433 107.944,189.748C108.053,189.999 108.127,190.258 108.192,190.521C108.243,190.721 108.344,190.9 108.44,191.081C108.575,191.333 108.777,191.547 108.875,191.823C108.94,192.143 108.846,192.427 108.681,192.697C108.498,192.96 108.248,193.141 107.962,193.279C107.557,193.498 107.15,193.713 106.705,193.848C106.272,194.077 105.789,194.237 105.648,194.805C105.528,195.293 105.156,195.508 104.682,195.576C104.622,195.525 104.561,195.474 104.5,195.424C104.423,195.287 104.376,195.138 104.358,194.981C104.364,194.273 104.832,193.878 105.352,193.519" style="fill:rgb(251,255,255);"/>
        </g>
        <g transform="matrix(0.993444,0,0,0.835083,38.8871,55.1568)">
            <path d="M77.113,207.045C77.586,206.638 78.058,206.232 78.531,205.824C79.11,205.453 79.358,204.781 79.864,204.343C80.011,204.285 80.16,204.283 80.31,204.325C80.894,204.827 81.653,204.233 82.255,204.634C82.59,205.049 82.49,205.518 82.428,205.983C82.215,206.566 81.986,207.127 81.27,207.276C81.056,207.321 80.931,207.41 81.134,207.31C81.163,207.295 81.257,207.385 81.366,207.476C81.437,207.606 81.474,207.734 81.49,207.876C81.076,208.732 81.216,209.614 81.34,210.496C80.972,211.001 80.235,211.215 80.181,211.97C79.985,212.12 79.765,212.163 79.525,212.125C79.374,212.07 79.246,211.982 79.141,211.861C78.427,211.652 78.786,210.918 78.479,210.51C78.133,210.347 77.795,210.149 77.387,210.204C76.877,209.958 76.386,209.705 76.552,208.981C76.564,208.927 76.304,208.811 76.171,208.724C75.758,208.104 76.233,207.626 76.429,207.104C76.642,206.912 76.871,206.9 77.113,207.045" style="fill:rgb(228,251,248);"/>
        </g>
        <g transform="matrix(0.993444,0,0,0.835083,17.5355,66.8654)">
            <path d="M105.352,193.519C105.336,193.196 105.858,192.863 105.266,192.537C104.981,192.379 104.705,191.036 104.708,190.478C104.764,190.37 104.836,190.273 104.922,190.186C105.042,190.03 105.132,189.855 105.235,189.686C105.423,188.801 105.859,188.12 106.797,187.931C107.477,187.795 108.068,187.872 107.956,188.815C107.831,189.123 107.751,189.433 107.944,189.748C108.053,189.999 108.127,190.258 108.192,190.521C108.243,190.721 108.344,190.9 108.44,191.081C108.575,191.333 108.777,191.547 108.875,191.823C108.94,192.143 108.846,192.427 108.681,192.697C108.498,192.96 108.248,193.141 107.962,193.279C107.557,193.498 107.15,193.713 106.705,193.848C106.272,194.077 105.789,194.237 105.648,194.805C105.528,195.293 105.156,195.508 104.682,195.576C104.622,195.525 104.561,195.474 104.5,195.424C104.423,195.287 104.376,195.138 104.358,194.981C104.364,194.273 104.832,193.878 105.352,193.519" style="fill:rgb(209,250,246);"/>
        </g>
        <g transform="matrix(0.993444,0,0,0.835083,13.8957,67.8738)">
            <path d="M118.624,183.249C118.961,183.049 119.297,182.848 119.633,182.647C120.545,182.873 119.557,183.629 120.015,183.978C120.436,184.351 120.889,184.702 120.861,185.348C121.202,186.064 121.038,186.643 120.389,187.09C119.655,188.546 118.048,188.163 116.902,188.754C116.793,188.894 116.65,189.009 116.477,188.93C116.101,188.761 116.021,188.12 115.402,188.304C114.905,188.451 114.442,188.61 114.082,189.009C113.935,189.171 113.722,189.273 113.539,189.402C113.524,189.185 113.51,188.966 113.494,188.748L113.502,188.756C113.141,188.502 113.021,188.087 112.816,187.728L112.817,187.728C113.188,187.754 113.561,187.779 114.017,187.81C113.936,187.27 113.257,187.404 113.157,186.983C113.28,186.724 113.485,186.546 113.73,186.404C113.98,186.242 114.125,186.008 114.197,185.727C114.221,185.591 114.259,185.458 114.3,185.326C114.359,185.131 114.441,184.944 114.534,184.762C114.701,184.468 114.859,184.162 115.21,184.04C115.776,183.553 116.632,183.775 117.178,183.239C117.661,183.092 118.143,183.126 118.624,183.249" style="fill:rgb(236,252,249);"/>
        </g>
        <g transform="matrix(0.993444,0,0,0.835083,22.1502,63.8827)">
            <path d="M118.624,183.249C118.961,183.049 119.297,182.848 119.633,182.647C120.545,182.873 119.557,183.629 120.015,183.978C120.436,184.351 120.889,184.702 120.861,185.348C121.202,186.064 121.038,186.643 120.389,187.09C119.655,188.546 118.048,188.163 116.902,188.754C116.793,188.894 116.65,189.009 116.477,188.93C116.101,188.761 116.021,188.12 115.402,188.304C114.905,188.451 114.442,188.61 114.082,189.009C113.935,189.171 113.722,189.273 113.539,189.402C113.524,189.185 113.51,188.966 113.494,188.748L113.502,188.756C113.141,188.502 113.021,188.087 112.816,187.728L112.817,187.728C113.188,187.754 113.561,187.779 114.017,187.81C113.936,187.27 113.257,187.404 113.157,186.983C113.28,186.724 113.485,186.546 113.73,186.404C113.98,186.242 114.125,186.008 114.197,185.727C114.221,185.591 114.259,185.458 114.3,185.326C114.359,185.131 114.441,184.944 114.534,184.762C114.701,184.468 114.859,184.162 115.21,184.04C115.776,183.553 116.632,183.775 117.178,183.239C117.661,183.092 118.143,183.126 118.624,183.249" style="fill:rgb(236,252,249);"/>
        </g>
        <g transform="matrix(0.993444,0,0,0.835083,-35.4721,93.4966)">
            <path d="M118.624,183.249C118.961,183.049 119.297,182.848 119.633,182.647C120.545,182.873 119.557,183.629 120.015,183.978C120.436,184.351 120.889,184.702 120.861,185.348C121.202,186.064 121.038,186.643 120.389,187.09C119.655,188.546 118.048,188.163 116.902,188.754C116.793,188.894 116.65,189.009 116.477,188.93C116.101,188.761 116.021,188.12 115.402,188.304C114.905,188.451 114.442,188.61 114.082,189.009C113.935,189.171 113.722,189.273 113.539,189.402C113.524,189.185 113.51,188.966 113.494,188.748L113.502,188.756C113.141,188.502 113.021,188.087 112.816,187.728L112.817,187.728C113.188,187.754 113.561,187.779 114.017,187.81C113.936,187.27 113.257,187.404 113.157,186.983C113.28,186.724 113.485,186.546 113.73,186.404C113.98,186.242 114.125,186.008 114.197,185.727C114.221,185.591 114.259,185.458 114.3,185.326C114.359,185.131 114.441,184.944 114.534,184.762C114.701,184.468 114.859,184.162 115.21,184.04C115.776,183.553 116.632,183.775 117.178,183.239C117.661,183.092 118.143,183.126 118.624,183.249" style="fill:rgb(236,252,249);"/>
        </g>
        <g transform="matrix(0.993444,0,0,0.835083,-41.716,97.5997)">
            <path d="M118.624,183.249C118.961,183.049 119.297,182.848 119.633,182.647C120.545,182.873 119.557,183.629 120.015,183.978C120.436,184.351 120.889,184.702 120.861,185.348C121.202,186.064 121.038,186.643 120.389,187.09C119.655,188.546 118.048,188.163 116.902,188.754C116.793,188.894 116.65,189.009 116.477,188.93C116.101,188.761 116.021,188.12 115.402,188.304C114.905,188.451 114.442,188.61 114.082,189.009C113.935,189.171 113.722,189.273 113.539,189.402C113.524,189.185 113.51,188.966 113.494,188.748L113.502,188.756C113.141,188.502 113.021,188.087 112.816,187.728L112.817,187.728C113.188,187.754 113.561,187.779 114.017,187.81C113.936,187.27 113.257,187.404 113.157,186.983C113.28,186.724 113.485,186.546 113.73,186.404C113.98,186.242 114.125,186.008 114.197,185.727C114.221,185.591 114.259,185.458 114.3,185.326C114.359,185.131 114.441,184.944 114.534,184.762C114.701,184.468 114.859,184.162 115.21,184.04C115.776,183.553 116.632,183.775 117.178,183.239C117.661,183.092 118.143,183.126 118.624,183.249" style="fill:rgb(236,252,249);"/>
        </g>
        <g transform="matrix(0.971739,0,0,-1.22487,-48.3657,487.403)">
            <path d="M118.624,183.249C118.961,183.049 119.297,182.848 119.633,182.647C120.545,182.873 119.557,183.629 120.015,183.978C120.436,184.351 120.889,184.702 120.861,185.348C121.202,186.064 121.038,186.643 120.389,187.09C119.655,188.546 118.048,188.163 116.902,188.754C116.793,188.894 116.65,189.009 116.477,188.93C116.101,188.761 116.021,188.12 115.402,188.304C114.905,188.451 114.442,188.61 114.082,189.009C113.935,189.171 113.722,189.273 113.539,189.402C113.524,189.185 113.51,188.966 113.494,188.748L113.502,188.756C113.141,188.502 113.021,188.087 112.816,187.728L112.817,187.728C113.188,187.754 113.561,187.779 114.017,187.81C113.936,187.27 113.257,187.404 113.157,186.983C113.28,186.724 113.485,186.546 113.73,186.404C113.98,186.242 114.125,186.008 114.197,185.727C114.221,185.591 114.259,185.458 114.3,185.326C114.359,185.131 114.441,184.944 114.534,184.762C114.701,184.468 114.859,184.162 115.21,184.04C115.776,183.553 116.632,183.775 117.178,183.239C117.661,183.092 118.143,183.126 118.624,183.249" style="fill:rgb(236,252,249);"/>
        </g>
        <g transform="matrix(0.993444,0,0,0.835083,-58.307,109.552)">
            <path d="M118.624,183.249C118.961,183.049 119.297,182.848 119.633,182.647C120.545,182.873 119.557,183.629 120.015,183.978C120.436,184.351 120.889,184.702 120.861,185.348C121.202,186.064 121.038,186.643 120.389,187.09C119.655,188.546 118.048,188.163 116.902,188.754C116.793,188.894 116.65,189.009 116.477,188.93C116.101,188.761 116.021,188.12 115.402,188.304C114.905,188.451 114.442,188.61 114.082,189.009C113.935,189.171 113.722,189.273 113.539,189.402C113.524,189.185 113.51,188.966 113.494,188.748L113.502,188.756C113.141,188.502 113.021,188.087 112.816,187.728L112.817,187.728C113.188,187.754 113.561,187.779 114.017,187.81C113.936,187.27 113.257,187.404 113.157,186.983C113.28,186.724 113.485,186.546 113.73,186.404C113.98,186.242 114.125,186.008 114.197,185.727C114.221,185.591 114.259,185.458 114.3,185.326C114.359,185.131 114.441,184.944 114.534,184.762C114.701,184.468 114.859,184.162 115.21,184.04C115.776,183.553 116.632,183.775 117.178,183.239C117.661,183.092 118.143,183.126 118.624,183.249" style="fill:rgb(236,252,249);"/>
        </g>
        <g transform="matrix(1.22933,0,0,0.487426,-126.397,207.445)">
            <path d="M105.352,193.519C105.336,193.196 105.858,192.863 105.266,192.537C104.981,192.379 104.705,191.036 104.708,190.478C104.764,190.37 104.836,190.273 104.922,190.186C105.042,190.03 105.132,189.855 105.235,189.686C105.423,188.801 105.859,188.12 106.797,187.931C107.477,187.795 108.068,187.872 107.956,188.815C107.831,189.123 107.751,189.433 107.944,189.748C108.053,189.999 108.127,190.258 108.192,190.521C108.243,190.721 108.344,190.9 108.44,191.081C108.575,191.333 108.777,191.547 108.875,191.823C108.94,192.143 108.846,192.427 108.681,192.697C108.498,192.96 108.248,193.141 107.962,193.279C107.557,193.498 107.15,193.713 106.705,193.848C106.272,194.077 105.789,194.237 105.648,194.805C105.528,195.293 105.156,195.508 104.682,195.576C104.622,195.525 104.561,195.474 104.5,195.424C104.423,195.287 104.376,195.138 104.358,194.981C104.364,194.273 104.832,193.878 105.352,193.519" style="fill:rgb(251,255,255);"/>
        </g>
        <g transform="matrix(0.993444,0,0,0.835083,-96.615,135.08)">
            <path d="M118.624,183.249C118.961,183.049 119.297,182.848 119.633,182.647C120.545,182.873 119.557,183.629 120.015,183.978C120.436,184.351 120.889,184.702 120.861,185.348C121.202,186.064 121.038,186.643 120.389,187.09C119.655,188.546 118.048,188.163 116.902,188.754C116.793,188.894 116.65,189.009 116.477,188.93C116.101,188.761 116.021,188.12 115.402,188.304C114.905,188.451 114.442,188.61 114.082,189.009C113.935,189.171 113.722,189.273 113.539,189.402C113.524,189.185 113.51,188.966 113.494,188.748L113.502,188.756C113.141,188.502 113.021,188.087 112.816,187.728L112.817,187.728C113.188,187.754 113.561,187.779 114.017,187.81C113.936,187.27 113.257,187.404 113.157,186.983C113.28,186.724 113.485,186.546 113.73,186.404C113.98,186.242 114.125,186.008 114.197,185.727C114.221,185.591 114.259,185.458 114.3,185.326C114.359,185.131 114.441,184.944 114.534,184.762C114.701,184.468 114.859,184.162 115.21,184.04C115.776,183.553 116.632,183.775 117.178,183.239C117.661,183.092 118.143,183.126 118.624,183.249" style="fill:rgb(236,252,249);"/>
        </g>
        <g transform="matrix(0.993444,0,0,0.835083,-94.1101,135.884)">
            <path d="M105.352,193.519C105.336,193.196 105.858,192.863 105.266,192.537C104.981,192.379 104.705,191.036 104.708,190.478C104.764,190.37 104.836,190.273 104.922,190.186C105.042,190.03 105.132,189.855 105.235,189.686C105.423,188.801 105.859,188.12 106.797,187.931C107.477,187.795 108.068,187.872 107.956,188.815C107.831,189.123 107.751,189.433 107.944,189.748C108.053,189.999 108.127,190.258 108.192,190.521C108.243,190.721 108.344,190.9 108.44,191.081C108.575,191.333 108.777,191.547 108.875,191.823C108.94,192.143 108.846,192.427 108.681,192.697C108.498,192.96 108.248,193.141 107.962,193.279C107.557,193.498 107.15,193.713 106.705,193.848C106.272,194.077 105.789,194.237 105.648,194.805C105.528,195.293 105.156,195.508 104.682,195.576C104.622,195.525 104.561,195.474 104.5,195.424C104.423,195.287 104.376,195.138 104.358,194.981C104.364,194.273 104.832,193.878 105.352,193.519" style="fill:rgb(251,255,255);"/>
        </g>
        <g transform="matrix(0.971739,0,0,-1.22487,-80.073,509.005)">
            <path d="M118.624,183.249C118.961,183.049 119.297,182.848 119.633,182.647C120.545,182.873 119.557,183.629 120.015,183.978C120.436,184.351 120.889,184.702 120.861,185.348C121.202,186.064 121.038,186.643 120.389,187.09C119.655,188.546 118.048,188.163 116.902,188.754C116.793,188.894 116.65,189.009 116.477,188.93C116.101,188.761 116.021,188.12 115.402,188.304C114.905,188.451 114.442,188.61 114.082,189.009C113.935,189.171 113.722,189.273 113.539,189.402C113.524,189.185 113.51,188.966 113.494,188.748L113.502,188.756C113.141,188.502 113.021,188.087 112.816,187.728L112.817,187.728C113.188,187.754 113.561,187.779 114.017,187.81C113.936,187.27 113.257,187.404 113.157,186.983C113.28,186.724 113.485,186.546 113.73,186.404C113.98,186.242 114.125,186.008 114.197,185.727C114.221,185.591 114.259,185.458 114.3,185.326C114.359,185.131 114.441,184.944 114.534,184.762C114.701,184.468 114.859,184.162 115.21,184.04C115.776,183.553 116.632,183.775 117.178,183.239C117.661,183.092 118.143,183.126 118.624,183.249" style="fill:rgb(236,252,249);"/>
        </g>
        <g transform="matrix(0.993444,0,0,0.835083,-90.0143,131.155)">
            <path d="M118.624,183.249C118.961,183.049 119.297,182.848 119.633,182.647C120.545,182.873 119.557,183.629 120.015,183.978C120.436,184.351 120.889,184.702 120.861,185.348C121.202,186.064 121.038,186.643 120.389,187.09C119.655,188.546 118.048,188.163 116.902,188.754C116.793,188.894 116.65,189.009 116.477,188.93C116.101,188.761 116.021,188.12 115.402,188.304C114.905,188.451 114.442,188.61 114.082,189.009C113.935,189.171 113.722,189.273 113.539,189.402C113.524,189.185 113.51,188.966 113.494,188.748L113.502,188.756C113.141,188.502 113.021,188.087 112.816,187.728L112.817,187.728C113.188,187.754 113.561,187.779 114.017,187.81C113.936,187.27 113.257,187.404 113.157,186.983C113.28,186.724 113.485,186.546 113.73,186.404C113.98,186.242 114.125,186.008 114.197,185.727C114.221,185.591 114.259,185.458 114.3,185.326C114.359,185.131 114.441,184.944 114.534,184.762C114.701,184.468 114.859,184.162 115.21,184.04C115.776,183.553 116.632,183.775 117.178,183.239C117.661,183.092 118.143,183.126 118.624,183.249" style="fill:rgb(236,252,249);"/>
        </g>
        <g transform="matrix(1.22933,0,0,0.487426,-94.6902,185.842)">
            <path d="M105.352,193.519C105.336,193.196 105.858,192.863 105.266,192.537C104.981,192.379 104.705,191.036 104.708,190.478C104.764,190.37 104.836,190.273 104.922,190.186C105.042,190.03 105.132,189.855 105.235,189.686C105.423,188.801 105.859,188.12 106.797,187.931C107.477,187.795 108.068,187.872 107.956,188.815C107.831,189.123 107.751,189.433 107.944,189.748C108.053,189.999 108.127,190.258 108.192,190.521C108.243,190.721 108.344,190.9 108.44,191.081C108.575,191.333 108.777,191.547 108.875,191.823C108.94,192.143 108.846,192.427 108.681,192.697C108.498,192.96 108.248,193.141 107.962,193.279C107.557,193.498 107.15,193.713 106.705,193.848C106.272,194.077 105.789,194.237 105.648,194.805C105.528,195.293 105.156,195.508 104.682,195.576C104.622,195.525 104.561,195.474 104.5,195.424C104.423,195.287 104.376,195.138 104.358,194.981C104.364,194.273 104.832,193.878 105.352,193.519" style="fill:rgb(251,255,255);"/>
        </g>
        <g transform="matrix(0.993444,0,0,0.835083,-64.9077,113.477)">
            <path d="M118.624,183.249C118.961,183.049 119.297,182.848 119.633,182.647C120.545,182.873 119.557,183.629 120.015,183.978C120.436,184.351 120.889,184.702 120.861,185.348C121.202,186.064 121.038,186.643 120.389,187.09C119.655,188.546 118.048,188.163 116.902,188.754C116.793,188.894 116.65,189.009 116.477,188.93C116.101,188.761 116.021,188.12 115.402,188.304C114.905,188.451 114.442,188.61 114.082,189.009C113.935,189.171 113.722,189.273 113.539,189.402C113.524,189.185 113.51,188.966 113.494,188.748L113.502,188.756C113.141,188.502 113.021,188.087 112.816,187.728L112.817,187.728C113.188,187.754 113.561,187.779 114.017,187.81C113.936,187.27 113.257,187.404 113.157,186.983C113.28,186.724 113.485,186.546 113.73,186.404C113.98,186.242 114.125,186.008 114.197,185.727C114.221,185.591 114.259,185.458 114.3,185.326C114.359,185.131 114.441,184.944 114.534,184.762C114.701,184.468 114.859,184.162 115.21,184.04C115.776,183.553 116.632,183.775 117.178,183.239C117.661,183.092 118.143,183.126 118.624,183.249" style="fill:rgb(236,252,249);"/>
        </g>
        <g transform="matrix(0.993444,0,0,0.835083,-62.4028,114.281)">
            <path d="M105.352,193.519C105.336,193.196 105.858,192.863 105.266,192.537C104.981,192.379 104.705,191.036 104.708,190.478C104.764,190.37 104.836,190.273 104.922,190.186C105.042,190.03 105.132,189.855 105.235,189.686C105.423,188.801 105.859,188.12 106.797,187.931C107.477,187.795 108.068,187.872 107.956,188.815C107.831,189.123 107.751,189.433 107.944,189.748C108.053,189.999 108.127,190.258 108.192,190.521C108.243,190.721 108.344,190.9 108.44,191.081C108.575,191.333 108.777,191.547 108.875,191.823C108.94,192.143 108.846,192.427 108.681,192.697C108.498,192.96 108.248,193.141 107.962,193.279C107.557,193.498 107.15,193.713 106.705,193.848C106.272,194.077 105.789,194.237 105.648,194.805C105.528,195.293 105.156,195.508 104.682,195.576C104.622,195.525 104.561,195.474 104.5,195.424C104.423,195.287 104.376,195.138 104.358,194.981C104.364,194.273 104.832,193.878 105.352,193.519" style="fill:rgb(251,255,255);"/>
        </g>
        <g transform="matrix(0.971739,0,0,-1.22487,-48.3657,487.403)">
            <path d="M118.624,183.249C118.961,183.049 119.297,182.848 119.633,182.647C120.545,182.873 119.557,183.629 120.015,183.978C120.436,184.351 120.889,184.702 120.861,185.348C121.202,186.064 121.038,186.643 120.389,187.09C119.655,188.546 118.048,188.163 116.902,188.754C116.793,188.894 116.65,189.009 116.477,188.93C116.101,188.761 116.021,188.12 115.402,188.304C114.905,188.451 114.442,188.61 114.082,189.009C113.935,189.171 113.722,189.273 113.539,189.402C113.524,189.185 113.51,188.966 113.494,188.748L113.502,188.756C113.141,188.502 113.021,188.087 112.816,187.728L112.817,187.728C113.188,187.754 113.561,187.779 114.017,187.81C113.936,187.27 113.257,187.404 113.157,186.983C113.28,186.724 113.485,186.546 113.73,186.404C113.98,186.242 114.125,186.008 114.197,185.727C114.221,185.591 114.259,185.458 114.3,185.326C114.359,185.131 114.441,184.944 114.534,184.762C114.701,184.468 114.859,184.162 115.21,184.04C115.776,183.553 116.632,183.775 117.178,183.239C117.661,183.092 118.143,183.126 118.624,183.249" style="fill:rgb(236,252,249);"/>
        </g>
        <g transform="matrix(0.993444,0,0,0.835083,-58.307,109.552)">
            <path d="M118.624,183.249C118.961,183.049 119.297,182.848 119.633,182.647C120.545,182.873 119.557,183.629 120.015,183.978C120.436,184.351 120.889,184.702 120.861,185.348C121.202,186.064 121.038,186.643 120.389,187.09C119.655,188.546 118.048,188.163 116.902,188.754C116.793,188.894 116.65,189.009 116.477,188.93C116.101,188.761 116.021,188.12 115.402,188.304C114.905,188.451 114.442,188.61 114.082,189.009C113.935,189.171 113.722,189.273 113.539,189.402C113.524,189.185 113.51,188.966 113.494,188.748L113.502,188.756C113.141,188.502 113.021,188.087 112.816,187.728L112.817,187.728C113.188,187.754 113.561,187.779 114.017,187.81C113.936,187.27 113.257,187.404 113.157,186.983C113.28,186.724 113.485,186.546 113.73,186.404C113.98,186.242 114.125,186.008 114.197,185.727C114.221,185.591 114.259,185.458 114.3,185.326C114.359,185.131 114.441,184.944 114.534,184.762C114.701,184.468 114.859,184.162 115.21,184.04C115.776,183.553 116.632,183.775 117.178,183.239C117.661,183.092 118.143,183.126 118.624,183.249" style="fill:rgb(236,252,249);"/>
        </g>
        <g transform="matrix(0.993444,0,0,0.835083,22.3738,62.8122)">
            <path d="M125.069,178.228C125.39,178.135 125.141,177.439 125.717,177.619C126.52,176.985 127.6,176.967 128.428,176.393C128.566,176.332 128.711,176.288 128.855,176.25C129.414,176.131 129.928,175.682 130.551,176.011C131.037,176.605 131.498,177.206 131.123,178.04C131.062,178.177 130.99,178.315 131.058,178.473C131.03,178.303 131.107,178.191 131.255,178.117C131.494,178.132 131.644,178.27 131.747,178.473C131.793,178.615 131.814,178.759 131.809,178.908C131.767,179.435 131.363,179.832 131.293,180.35C131.242,180.572 131.156,180.78 131.042,180.977C130.962,181.109 130.865,181.227 130.758,181.338C130.264,181.826 129.812,182.422 128.977,182.059C128.855,181.995 128.742,181.911 128.642,181.814C128.528,181.693 128.444,181.546 128.377,181.403C128.376,181.416 128.261,181.394 128.261,181.394C128.261,181.394 128.239,181.508 128.234,181.524C127.531,182.041 127.04,182.749 127.05,183.362C127.053,183.54 127.392,183.429 127.517,183.588C127.665,183.791 127.7,184.015 127.667,184.256C127.626,184.414 127.559,184.559 127.47,184.694C127.42,184.756 127.366,184.817 127.315,184.879C126.959,185.219 126.535,185.427 126.048,185.512C125.288,185.421 124.094,186.258 124.051,184.599C124.113,184.551 124.144,184.525 124.144,184.525C124.173,184.49 124.128,184.488 124.007,184.519C123.209,184.36 122.488,184.087 122.127,183.274C122.118,183.127 122.14,182.984 122.186,182.845C122.394,182.416 122.775,182.066 122.778,181.543C122.812,181.413 122.873,181.293 122.952,181.184C123.082,181.055 123.232,180.942 123.358,180.807C123.417,180.71 123.484,180.617 123.547,180.522C123.606,180.432 123.68,180.347 123.72,180.248C123.741,180.198 123.671,180.157 123.592,180.152C123.561,180.032 123.559,179.915 123.583,179.793C123.631,179.599 123.708,179.418 123.797,179.241C123.994,178.617 124.517,178.404 125.069,178.228" style="fill:rgb(235,251,249);"/>
        </g>
        <g transform="matrix(0.993444,0,0,0.835083,62.9661,44.787)">
            <path d="M160.373,161.054L165.31,157.809L167.578,156.206L166.975,154.394L165.16,154.397L163.727,154.893L162.986,155.77L160.161,156.162L158.905,157.419L158.418,157.759L150.801,153.671L143.127,150.39L140.345,151.417L139.181,152.772L144.975,157.689L144.168,158.422L144.275,159.017L144.499,160.438L146.56,160.939L147.867,160.093L150.527,161.66L148.189,163.494L145.505,165.38L144.3,166.211L142.946,166.222L141.724,166.446L141.497,167.318L141.92,167.902L141.752,168.811L142.112,169.777L143.396,169.13L143.305,170.837L144.472,171.619L145.397,171.455L145.732,169.798L146.14,168.337L147.514,168.066L149.407,166.992L151.321,166.103L152.175,165.207L152.705,165.705L152.975,169.026L151.677,169.899L151.08,170.83L151.441,172.55L153.188,172.522L153.632,175.733L154.12,178.152L155.894,178.836L157.635,177.803L158.197,176.077L158.507,173.537L159.042,171.142L159.498,169.051L160.133,163.635L160.373,161.054Z" style="fill:rgb(128,128,128);"/>
        </g>
        <g transform="matrix(-0.474831,-0.73352,1.04381,-0.477441,194.905,299.104)">
            <path d="M40.381,231.917C40.988,232.057 40.875,231.096 41.464,231.207C41.83,230.771 42.097,230.197 42.809,230.243C43.762,229.617 43.994,230.368 44.282,231.013C44.323,231.153 44.331,231.299 44.315,231.442C44.01,231.785 44.382,231.963 44.511,232.203C44.615,232.411 44.658,232.626 44.611,232.855C44.061,233.462 44.069,234.25 43.92,234.984C43.85,235.269 43.726,235.521 43.479,235.696C43.213,235.701 43.096,235.859 43.062,236.106C42.774,236.371 42.428,236.424 42.058,236.393C41.308,236.384 41.045,235.026 40.057,235.672C39.632,235.645 39.402,235.423 39.375,234.995C39.113,234.69 38.604,235.059 38.388,234.631C38.373,234.524 38.365,234.416 38.362,234.308C38.475,234.194 38.587,234.081 38.7,233.968C38.592,233.894 38.556,233.818 38.591,233.742C38.627,233.667 38.663,233.629 38.699,233.629C38.925,233.401 39.152,233.173 39.378,232.945C39.1,232.006 39.483,231.71 40.381,231.917" style="fill:rgb(235,251,249);"/>
        </g>
        <g transform="matrix(-0.474831,-0.73352,0.872621,-0.39914,297.405,307.676)">
            <path d="M105.352,193.519C105.336,193.196 105.858,192.863 105.266,192.537C104.981,192.379 104.705,191.036 104.708,190.478C104.764,190.37 104.836,190.273 104.922,190.186C105.042,190.03 105.132,189.855 105.235,189.686C105.423,188.801 105.859,188.12 106.797,187.931C107.477,187.795 108.068,187.872 107.956,188.815C107.831,189.123 107.751,189.433 107.944,189.748C108.053,189.999 108.127,190.258 108.192,190.521C108.243,190.721 108.344,190.9 108.44,191.081C108.575,191.333 108.777,191.547 108.875,191.823C108.94,192.143 108.846,192.427 108.681,192.697C108.498,192.96 108.248,193.141 107.962,193.279C107.557,193.498 107.15,193.713 106.705,193.848C106.272,194.077 105.789,194.237 105.648,194.805C105.528,195.293 105.156,195.508 104.682,195.576C104.622,195.525 104.561,195.474 104.5,195.424C104.423,195.287 104.376,195.138 104.358,194.981C104.364,194.273 104.832,193.878 105.352,193.519" style="fill:rgb(251,255,255);"/>
        </g>
        <g transform="matrix(-0.474831,-0.73352,0.872621,-0.39914,263.393,291.717)">
            <path d="M77.113,207.045C77.586,206.638 78.058,206.232 78.531,205.824C79.11,205.453 79.358,204.781 79.864,204.343C80.011,204.285 80.16,204.283 80.31,204.325C80.894,204.827 81.653,204.233 82.255,204.634C82.59,205.049 82.49,205.518 82.428,205.983C82.215,206.566 81.986,207.127 81.27,207.276C81.056,207.321 80.931,207.41 81.134,207.31C81.163,207.295 81.257,207.385 81.366,207.476C81.437,207.606 81.474,207.734 81.49,207.876C81.076,208.732 81.216,209.614 81.34,210.496C80.972,211.001 80.235,211.215 80.181,211.97C79.985,212.12 79.765,212.163 79.525,212.125C79.374,212.07 79.246,211.982 79.141,211.861C78.427,211.652 78.786,210.918 78.479,210.51C78.133,210.347 77.795,210.149 77.387,210.204C76.877,209.958 76.386,209.705 76.552,208.981C76.564,208.927 76.304,208.811 76.171,208.724C75.758,208.104 76.233,207.626 76.429,207.104C76.642,206.912 76.871,206.9 77.113,207.045" style="fill:rgb(228,251,248);"/>
        </g>
        <g transform="matrix(-0.474831,-0.73352,0.872621,-0.39914,285.833,301.886)">
            <path d="M105.352,193.519C105.336,193.196 105.858,192.863 105.266,192.537C104.981,192.379 104.705,191.036 104.708,190.478C104.764,190.37 104.836,190.273 104.922,190.186C105.042,190.03 105.132,189.855 105.235,189.686C105.423,188.801 105.859,188.12 106.797,187.931C107.477,187.795 108.068,187.872 107.956,188.815C107.831,189.123 107.751,189.433 107.944,189.748C108.053,189.999 108.127,190.258 108.192,190.521C108.243,190.721 108.344,190.9 108.44,191.081C108.575,191.333 108.777,191.547 108.875,191.823C108.94,192.143 108.846,192.427 108.681,192.697C108.498,192.96 108.248,193.141 107.962,193.279C107.557,193.498 107.15,193.713 106.705,193.848C106.272,194.077 105.789,194.237 105.648,194.805C105.528,195.293 105.156,195.508 104.682,195.576C104.622,195.525 104.561,195.474 104.5,195.424C104.423,195.287 104.376,195.138 104.358,194.981C104.364,194.273 104.832,193.878 105.352,193.519" style="fill:rgb(209,250,246);"/>
        </g>
        <g transform="matrix(-0.474831,-0.73352,0.872621,-0.39914,288.626,304.092)">
            <path d="M118.624,183.249C118.961,183.049 119.297,182.848 119.633,182.647C120.545,182.873 119.557,183.629 120.015,183.978C120.436,184.351 120.889,184.702 120.861,185.348C121.202,186.064 121.038,186.643 120.389,187.09C119.655,188.546 118.048,188.163 116.902,188.754C116.793,188.894 116.65,189.009 116.477,188.93C116.101,188.761 116.021,188.12 115.402,188.304C114.905,188.451 114.442,188.61 114.082,189.009C113.935,189.171 113.722,189.273 113.539,189.402C113.524,189.185 113.51,188.966 113.494,188.748L113.502,188.756C113.141,188.502 113.021,188.087 112.816,187.728L112.817,187.728C113.188,187.754 113.561,187.779 114.017,187.81C113.936,187.27 113.257,187.404 113.157,186.983C113.28,186.724 113.485,186.546 113.73,186.404C113.98,186.242 114.125,186.008 114.197,185.727C114.221,185.591 114.259,185.458 114.3,185.326C114.359,185.131 114.441,184.944 114.534,184.762C114.701,184.468 114.859,184.162 115.21,184.04C115.776,183.553 116.632,183.775 117.178,183.239C117.661,183.092 118.143,183.126 118.624,183.249" style="fill:rgb(236,252,249);"/>
        </g>
        <g transform="matrix(-0.474831,-0.73352,0.872621,-0.39914,280.51,299.905)">
            <path d="M118.624,183.249C118.961,183.049 119.297,182.848 119.633,182.647C120.545,182.873 119.557,183.629 120.015,183.978C120.436,184.351 120.889,184.702 120.861,185.348C121.202,186.064 121.038,186.643 120.389,187.09C119.655,188.546 118.048,188.163 116.902,188.754C116.793,188.894 116.65,189.009 116.477,188.93C116.101,188.761 116.021,188.12 115.402,188.304C114.905,188.451 114.442,188.61 114.082,189.009C113.935,189.171 113.722,189.273 113.539,189.402C113.524,189.185 113.51,188.966 113.494,188.748L113.502,188.756C113.141,188.502 113.021,188.087 112.816,187.728L112.817,187.728C113.188,187.754 113.561,187.779 114.017,187.81C113.936,187.27 113.257,187.404 113.157,186.983C113.28,186.724 113.485,186.546 113.73,186.404C113.98,186.242 114.125,186.008 114.197,185.727C114.221,185.591 114.259,185.458 114.3,185.326C114.359,185.131 114.441,184.944 114.534,184.762C114.701,184.468 114.859,184.162 115.21,184.04C115.776,183.553 116.632,183.775 117.178,183.239C117.661,183.092 118.143,183.126 118.624,183.249" style="fill:rgb(236,252,249);"/>
        </g>
        <g transform="matrix(-0.474831,-0.73352,0.872621,-0.39914,279.285,300.251)">
            <path d="M125.069,178.228C125.39,178.135 125.141,177.439 125.717,177.619C126.52,176.985 127.6,176.967 128.428,176.393C128.566,176.332 128.711,176.288 128.855,176.25C129.414,176.131 129.928,175.682 130.551,176.011C131.037,176.605 131.498,177.206 131.123,178.04C131.062,178.177 130.99,178.315 131.058,178.473C131.03,178.303 131.107,178.191 131.255,178.117C131.494,178.132 131.644,178.27 131.747,178.473C131.793,178.615 131.814,178.759 131.809,178.908C131.767,179.435 131.363,179.832 131.293,180.35C131.242,180.572 131.156,180.78 131.042,180.977C130.962,181.109 130.865,181.227 130.758,181.338C130.264,181.826 129.812,182.422 128.977,182.059C128.855,181.995 128.742,181.911 128.642,181.814C128.528,181.693 128.444,181.546 128.377,181.403C128.376,181.416 128.261,181.394 128.261,181.394C128.261,181.394 128.239,181.508 128.234,181.524C127.531,182.041 127.04,182.749 127.05,183.362C127.053,183.54 127.392,183.429 127.517,183.588C127.665,183.791 127.7,184.015 127.667,184.256C127.626,184.414 127.559,184.559 127.47,184.694C127.42,184.756 127.366,184.817 127.315,184.879C126.959,185.219 126.535,185.427 126.048,185.512C125.288,185.421 124.094,186.258 124.051,184.599C124.113,184.551 124.144,184.525 124.144,184.525C124.173,184.49 124.128,184.488 124.007,184.519C123.209,184.36 122.488,184.087 122.127,183.274C122.118,183.127 122.14,182.984 122.186,182.845C122.394,182.416 122.775,182.066 122.778,181.543C122.812,181.413 122.873,181.293 122.952,181.184C123.082,181.055 123.232,180.942 123.358,180.807C123.417,180.71 123.484,180.617 123.547,180.522C123.606,180.432 123.68,180.347 123.72,180.248C123.741,180.198 123.671,180.157 123.592,180.152C123.561,180.032 123.559,179.915 123.583,179.793C123.631,179.599 123.708,179.418 123.797,179.241C123.994,178.617 124.517,178.404 125.069,178.228" style="fill:rgb(235,251,249);"/>
        </g>
        <g transform="matrix(-0.474831,-0.73352,0.872621,-0.39914,347.529,333.376)">
            <path d="M105.352,193.519C105.336,193.196 105.858,192.863 105.266,192.537C104.981,192.379 104.705,191.036 104.708,190.478C104.764,190.37 104.836,190.273 104.922,190.186C105.042,190.03 105.132,189.855 105.235,189.686C105.423,188.801 105.859,188.12 106.797,187.931C107.477,187.795 108.068,187.872 107.956,188.815C107.831,189.123 107.751,189.433 107.944,189.748C108.053,189.999 108.127,190.258 108.192,190.521C108.243,190.721 108.344,190.9 108.44,191.081C108.575,191.333 108.777,191.547 108.875,191.823C108.94,192.143 108.846,192.427 108.681,192.697C108.498,192.96 108.248,193.141 107.962,193.279C107.557,193.498 107.15,193.713 106.705,193.848C106.272,194.077 105.789,194.237 105.648,194.805C105.528,195.293 105.156,195.508 104.682,195.576C104.622,195.525 104.561,195.474 104.5,195.424C104.423,195.287 104.376,195.138 104.358,194.981C104.364,194.273 104.832,193.878 105.352,193.519" style="fill:rgb(251,255,255);"/>
        </g>
        <g transform="matrix(-0.474831,-0.73352,0.872621,-0.39914,313.516,317.417)">
            <path d="M77.113,207.045C77.586,206.638 78.058,206.232 78.531,205.824C79.11,205.453 79.358,204.781 79.864,204.343C80.011,204.285 80.16,204.283 80.31,204.325C80.894,204.827 81.653,204.233 82.255,204.634C82.59,205.049 82.49,205.518 82.428,205.983C82.215,206.566 81.986,207.127 81.27,207.276C81.056,207.321 80.931,207.41 81.134,207.31C81.163,207.295 81.257,207.385 81.366,207.476C81.437,207.606 81.474,207.734 81.49,207.876C81.076,208.732 81.216,209.614 81.34,210.496C80.972,211.001 80.235,211.215 80.181,211.97C79.985,212.12 79.765,212.163 79.525,212.125C79.374,212.07 79.246,211.982 79.141,211.861C78.427,211.652 78.786,210.918 78.479,210.51C78.133,210.347 77.795,210.149 77.387,210.204C76.877,209.958 76.386,209.705 76.552,208.981C76.564,208.927 76.304,208.811 76.171,208.724C75.758,208.104 76.233,207.626 76.429,207.104C76.642,206.912 76.871,206.9 77.113,207.045" style="fill:rgb(228,251,248);"/>
        </g>
        <g transform="matrix(-0.474831,-0.73352,0.872621,-0.39914,335.956,327.586)">
            <path d="M105.352,193.519C105.336,193.196 105.858,192.863 105.266,192.537C104.981,192.379 104.705,191.036 104.708,190.478C104.764,190.37 104.836,190.273 104.922,190.186C105.042,190.03 105.132,189.855 105.235,189.686C105.423,188.801 105.859,188.12 106.797,187.931C107.477,187.795 108.068,187.872 107.956,188.815C107.831,189.123 107.751,189.433 107.944,189.748C108.053,189.999 108.127,190.258 108.192,190.521C108.243,190.721 108.344,190.9 108.44,191.081C108.575,191.333 108.777,191.547 108.875,191.823C108.94,192.143 108.846,192.427 108.681,192.697C108.498,192.96 108.248,193.141 107.962,193.279C107.557,193.498 107.15,193.713 106.705,193.848C106.272,194.077 105.789,194.237 105.648,194.805C105.528,195.293 105.156,195.508 104.682,195.576C104.622,195.525 104.561,195.474 104.5,195.424C104.423,195.287 104.376,195.138 104.358,194.981C104.364,194.273 104.832,193.878 105.352,193.519" style="fill:rgb(209,250,246);"/>
        </g>
        <g transform="matrix(-0.474831,-0.73352,0.872621,-0.39914,338.75,329.792)">
            <path d="M118.624,183.249C118.961,183.049 119.297,182.848 119.633,182.647C120.545,182.873 119.557,183.629 120.015,183.978C120.436,184.351 120.889,184.702 120.861,185.348C121.202,186.064 121.038,186.643 120.389,187.09C119.655,188.546 118.048,188.163 116.902,188.754C116.793,188.894 116.65,189.009 116.477,188.93C116.101,188.761 116.021,188.12 115.402,188.304C114.905,188.451 114.442,188.61 114.082,189.009C113.935,189.171 113.722,189.273 113.539,189.402C113.524,189.185 113.51,188.966 113.494,188.748L113.502,188.756C113.141,188.502 113.021,188.087 112.816,187.728L112.817,187.728C113.188,187.754 113.561,187.779 114.017,187.81C113.936,187.27 113.257,187.404 113.157,186.983C113.28,186.724 113.485,186.546 113.73,186.404C113.98,186.242 114.125,186.008 114.197,185.727C114.221,185.591 114.259,185.458 114.3,185.326C114.359,185.131 114.441,184.944 114.534,184.762C114.701,184.468 114.859,184.162 115.21,184.04C115.776,183.553 116.632,183.775 117.178,183.239C117.661,183.092 118.143,183.126 118.624,183.249" style="fill:rgb(236,252,249);"/>
        </g>
        <g transform="matrix(-0.474831,-0.73352,0.872621,-0.39914,330.634,325.605)">
            <path d="M118.624,183.249C118.961,183.049 119.297,182.848 119.633,182.647C120.545,182.873 119.557,183.629 120.015,183.978C120.436,184.351 120.889,184.702 120.861,185.348C121.202,186.064 121.038,186.643 120.389,187.09C119.655,188.546 118.048,188.163 116.902,188.754C116.793,188.894 116.65,189.009 116.477,188.93C116.101,188.761 116.021,188.12 115.402,188.304C114.905,188.451 114.442,188.61 114.082,189.009C113.935,189.171 113.722,189.273 113.539,189.402C113.524,189.185 113.51,188.966 113.494,188.748L113.502,188.756C113.141,188.502 113.021,188.087 112.816,187.728L112.817,187.728C113.188,187.754 113.561,187.779 114.017,187.81C113.936,187.27 113.257,187.404 113.157,186.983C113.28,186.724 113.485,186.546 113.73,186.404C113.98,186.242 114.125,186.008 114.197,185.727C114.221,185.591 114.259,185.458 114.3,185.326C114.359,185.131 114.441,184.944 114.534,184.762C114.701,184.468 114.859,184.162 115.21,184.04C115.776,183.553 116.632,183.775 117.178,183.239C117.661,183.092 118.143,183.126 118.624,183.249" style="fill:rgb(236,252,249);"/>
        </g>
        <g transform="matrix(-0.474831,-0.73352,0.872621,-0.39914,329.408,325.951)">
            <path d="M125.069,178.228C125.39,178.135 125.141,177.439 125.717,177.619C126.52,176.985 127.6,176.967 128.428,176.393C128.566,176.332 128.711,176.288 128.855,176.25C129.414,176.131 129.928,175.682 130.551,176.011C131.037,176.605 131.498,177.206 131.123,178.04C131.062,178.177 130.99,178.315 131.058,178.473C131.03,178.303 131.107,178.191 131.255,178.117C131.494,178.132 131.644,178.27 131.747,178.473C131.793,178.615 131.814,178.759 131.809,178.908C131.767,179.435 131.363,179.832 131.293,180.35C131.242,180.572 131.156,180.78 131.042,180.977C130.962,181.109 130.865,181.227 130.758,181.338C130.264,181.826 129.812,182.422 128.977,182.059C128.855,181.995 128.742,181.911 128.642,181.814C128.528,181.693 128.444,181.546 128.377,181.403C128.376,181.416 128.261,181.394 128.261,181.394C128.261,181.394 128.239,181.508 128.234,181.524C127.531,182.041 127.04,182.749 127.05,183.362C127.053,183.54 127.392,183.429 127.517,183.588C127.665,183.791 127.7,184.015 127.667,184.256C127.626,184.414 127.559,184.559 127.47,184.694C127.42,184.756 127.366,184.817 127.315,184.879C126.959,185.219 126.535,185.427 126.048,185.512C125.288,185.421 124.094,186.258 124.051,184.599C124.113,184.551 124.144,184.525 124.144,184.525C124.173,184.49 124.128,184.488 124.007,184.519C123.209,184.36 122.488,184.087 122.127,183.274C122.118,183.127 122.14,182.984 122.186,182.845C122.394,182.416 122.775,182.066 122.778,181.543C122.812,181.413 122.873,181.293 122.952,181.184C123.082,181.055 123.232,180.942 123.358,180.807C123.417,180.71 123.484,180.617 123.547,180.522C123.606,180.432 123.68,180.347 123.72,180.248C123.741,180.198 123.671,180.157 123.592,180.152C123.561,180.032 123.559,179.915 123.583,179.793C123.631,179.599 123.708,179.418 123.797,179.241C123.994,178.617 124.517,178.404 125.069,178.228" style="fill:rgb(235,251,249);"/>
        </g>
        <g transform="matrix(-0.474831,-0.73352,0.872621,-0.39914,329.408,325.951)">
            <path d="M125.069,178.228C125.39,178.135 125.141,177.439 125.717,177.619C126.52,176.985 127.6,176.967 128.428,176.393C128.566,176.332 128.711,176.288 128.855,176.25C129.414,176.131 129.928,175.682 130.551,176.011C131.037,176.605 131.498,177.206 131.123,178.04C131.062,178.177 130.99,178.315 131.058,178.473C131.03,178.303 131.107,178.191 131.255,178.117C131.494,178.132 131.644,178.27 131.747,178.473C131.793,178.615 131.814,178.759 131.809,178.908C131.767,179.435 131.363,179.832 131.293,180.35C131.242,180.572 131.156,180.78 131.042,180.977C130.962,181.109 130.865,181.227 130.758,181.338C130.264,181.826 129.812,182.422 128.977,182.059C128.855,181.995 128.742,181.911 128.642,181.814C128.528,181.693 128.444,181.546 128.377,181.403C128.376,181.416 128.261,181.394 128.261,181.394C128.261,181.394 128.239,181.508 128.234,181.524C127.531,182.041 127.04,182.749 127.05,183.362C127.053,183.54 127.392,183.429 127.517,183.588C127.665,183.791 127.7,184.015 127.667,184.256C127.626,184.414 127.559,184.559 127.47,184.694C127.42,184.756 127.366,184.817 127.315,184.879C126.959,185.219 126.535,185.427 126.048,185.512C125.288,185.421 124.094,186.258 124.051,184.599C124.113,184.551 124.144,184.525 124.144,184.525C124.173,184.49 124.128,184.488 124.007,184.519C123.209,184.36 122.488,184.087 122.127,183.274C122.118,183.127 122.14,182.984 122.186,182.845C122.394,182.416 122.775,182.066 122.778,181.543C122.812,181.413 122.873,181.293 122.952,181.184C123.082,181.055 123.232,180.942 123.358,180.807C123.417,180.71 123.484,180.617 123.547,180.522C123.606,180.432 123.68,180.347 123.72,180.248C123.741,180.198 123.671,180.157 123.592,180.152C123.561,180.032 123.559,179.915 123.583,179.793C123.631,179.599 123.708,179.418 123.797,179.241C123.994,178.617 124.517,178.404 125.069,178.228" style="fill:rgb(235,251,249);"/>
        </g>
        <g transform="matrix(-0.595422,-0.919809,1.46806,-0.671495,286.678,421.048)">
            <path d="M125.069,178.228C125.39,178.135 125.141,177.439 125.717,177.619C126.52,176.985 127.6,176.967 128.428,176.393C128.566,176.332 128.711,176.288 128.855,176.25C129.414,176.131 129.928,175.682 130.551,176.011C131.037,176.605 131.498,177.206 131.123,178.04C131.062,178.177 130.99,178.315 131.058,178.473C131.03,178.303 131.107,178.191 131.255,178.117C131.494,178.132 131.644,178.27 131.747,178.473C131.793,178.615 131.814,178.759 131.809,178.908C131.767,179.435 131.363,179.832 131.293,180.35C131.242,180.572 131.156,180.78 131.042,180.977C130.962,181.109 130.865,181.227 130.758,181.338C130.264,181.826 129.812,182.422 128.977,182.059C128.855,181.995 128.742,181.911 128.642,181.814C128.528,181.693 128.444,181.546 128.377,181.403C128.376,181.416 128.261,181.394 128.261,181.394C128.261,181.394 128.239,181.508 128.234,181.524C127.531,182.041 127.04,182.749 127.05,183.362C127.053,183.54 127.392,183.429 127.517,183.588C127.665,183.791 127.7,184.015 127.667,184.256C127.626,184.414 127.559,184.559 127.47,184.694C127.42,184.756 127.366,184.817 127.315,184.879C126.959,185.219 126.535,185.427 126.048,185.512C125.288,185.421 124.094,186.258 124.051,184.599C124.113,184.551 124.144,184.525 124.144,184.525C124.173,184.49 124.128,184.488 124.007,184.519C123.209,184.36 122.488,184.087 122.127,183.274C122.118,183.127 122.14,182.984 122.186,182.845C122.394,182.416 122.775,182.066 122.778,181.543C122.812,181.413 122.873,181.293 122.952,181.184C123.082,181.055 123.232,180.942 123.358,180.807C123.417,180.71 123.484,180.617 123.547,180.522C123.606,180.432 123.68,180.347 123.72,180.248C123.741,180.198 123.671,180.157 123.592,180.152C123.561,180.032 123.559,179.915 123.583,179.793C123.631,179.599 123.708,179.418 123.797,179.241C123.994,178.617 124.517,178.404 125.069,178.228" style="fill:rgb(235,251,249);"/>
        </g>
        <g transform="matrix(0.230078,-1.07128,1.51252,0.564245,189.349,224.925)">
            <path d="M125.069,178.228C125.39,178.135 125.141,177.439 125.717,177.619C126.52,176.985 127.6,176.967 128.428,176.393C128.566,176.332 128.711,176.288 128.855,176.25C129.414,176.131 129.928,175.682 130.551,176.011C131.037,176.605 131.498,177.206 131.123,178.04C131.062,178.177 130.99,178.315 131.058,178.473C131.03,178.303 131.107,178.191 131.255,178.117C131.494,178.132 131.644,178.27 131.747,178.473C131.793,178.615 131.814,178.759 131.809,178.908C131.767,179.435 131.363,179.832 131.293,180.35C131.242,180.572 131.156,180.78 131.042,180.977C130.962,181.109 130.865,181.227 130.758,181.338C130.264,181.826 129.812,182.422 128.977,182.059C128.855,181.995 128.742,181.911 128.642,181.814C128.528,181.693 128.444,181.546 128.377,181.403C128.376,181.416 128.261,181.394 128.261,181.394C128.261,181.394 128.239,181.508 128.234,181.524C127.531,182.041 127.04,182.749 127.05,183.362C127.053,183.54 127.392,183.429 127.517,183.588C127.665,183.791 127.7,184.015 127.667,184.256C127.626,184.414 127.559,184.559 127.47,184.694C127.42,184.756 127.366,184.817 127.315,184.879C126.959,185.219 126.535,185.427 126.048,185.512C125.288,185.421 124.094,186.258 124.051,184.599C124.113,184.551 124.144,184.525 124.144,184.525C124.173,184.49 124.128,184.488 124.007,184.519C123.209,184.36 122.488,184.087 122.127,183.274C122.118,183.127 122.14,182.984 122.186,182.845C122.394,182.416 122.775,182.066 122.778,181.543C122.812,181.413 122.873,181.293 122.952,181.184C123.082,181.055 123.232,180.942 123.358,180.807C123.417,180.71 123.484,180.617 123.547,180.522C123.606,180.432 123.68,180.347 123.72,180.248C123.741,180.198 123.671,180.157 123.592,180.152C123.561,180.032 123.559,179.915 123.583,179.793C123.631,179.599 123.708,179.418 123.797,179.241C123.994,178.617 124.517,178.404 125.069,178.228" style="fill:rgb(235,251,249);"/>
        </g>
        <g transform="matrix(-0.474831,-0.73352,0.872621,-0.39914,291.171,304.595)">
            <path d="M160.373,161.054L165.31,157.809L167.578,156.206L166.975,154.394L165.16,154.397L163.727,154.893L162.986,155.77L160.161,156.162L158.905,157.419L158.418,157.759L150.801,153.671L143.127,150.39L140.345,151.417L139.181,152.772L144.975,157.689L144.168,158.422L144.275,159.017L144.499,160.438L146.56,160.939L147.867,160.093L150.527,161.66L148.189,163.494L145.505,165.38L144.3,166.211L142.946,166.222L141.724,166.446L141.497,167.318L141.92,167.902L141.752,168.811L142.112,169.777L143.396,169.13L143.305,170.837L144.472,171.619L145.397,171.455L145.732,169.798L146.14,168.337L147.514,168.066L149.407,166.992L151.321,166.103L152.175,165.207L152.705,165.705L152.975,169.026L151.677,169.899L151.08,170.83L151.441,172.55L153.188,172.522L153.632,175.733L154.12,178.152L155.894,178.836L157.635,177.803L158.197,176.077L158.507,173.537L159.042,171.142L159.498,169.051L160.133,163.635L160.373,161.054Z" style="fill:rgb(128,128,128);"/>
        </g>
    </g>
</svg>
